<svg id="Layer_1" data-name="Layer 1" xmlns="http://www.w3.org/2000/svg" xmlns:xlink="http://www.w3.org/1999/xlink" viewBox="0 0 4500 2500"><defs><style>.cls-1{fill:none;}.cls-2,.cls-21{fill:#aed3f0;}.cls-3{fill:#c3dcf3;}.cls-10,.cls-18,.cls-19,.cls-20,.cls-21,.cls-22,.cls-23,.cls-24,.cls-25,.cls-26,.cls-27,.cls-28,.cls-29,.cls-3,.cls-32,.cls-33,.cls-34,.cls-35,.cls-36,.cls-37,.cls-38,.cls-39,.cls-40,.cls-41,.cls-42,.cls-43,.cls-44,.cls-45,.cls-46,.cls-47,.cls-48,.cls-49,.cls-5,.cls-6,.cls-7,.cls-8,.cls-9{fill-rule:evenodd;}.cls-4{clip-path:url(#clip-path);}.cls-5{fill:#daebf8;}.cls-31,.cls-6,.cls-7{fill:#fff;}.cls-6{fill-opacity:0.45;}.cls-7{fill-opacity:0.55;}.cls-8{fill:#84bce8;}.cls-9{fill:#deecf8;}.cls-10{fill:#62a0db;}.cls-11{opacity:0.1;}.cls-12,.cls-23{fill:#2d4584;}.cls-13{fill:url(#linear-gradient);}.cls-14{fill:#8ebbe5;}.cls-15{fill:url(#linear-gradient-2);}.cls-16{fill:#c1ab53;}.cls-17{fill:#edd573;}.cls-18{fill:#2f80ce;}.cls-19{fill-opacity:0.15;}.cls-20{fill:url(#linear-gradient-3);}.cls-22{fill:#ec6198;}.cls-24{fill:url(#linear-gradient-4);}.cls-25{fill:#1f305c;}.cls-26{fill:url(#linear-gradient-5);}.cls-27{fill:#f9fcfe;}.cls-28,.cls-30{fill:#4067b1;}.cls-29{fill:#2f4b82;}.cls-32{fill:url(#linear-gradient-6);}.cls-33{fill:#ffc787;}.cls-34{fill:#ffb765;}.cls-35{fill:#44ae9e;}.cls-36{fill:#399184;}.cls-37{fill:#88c4eb;}.cls-38{fill:#d6e9f7;}.cls-39{fill:#eaf4fb;}.cls-40{fill:#3d96db;}.cls-41{fill:#61a9e2;}.cls-42{fill:#7db8e7;}.cls-43{fill:#e6c53d;}.cls-44{fill:#a08f4b;}.cls-45{fill-opacity:0.12;}.cls-46{fill:#e83e81;}.cls-47{fill:#ffcbdf;}.cls-48{fill:#fff6fa;}.cls-49{fill:#2c4584;}</style><clipPath id="clip-path"><rect class="cls-1" width="4500" height="2499.99"/></clipPath><linearGradient id="linear-gradient" x1="1289.33" y1="1791.43" x2="1290.51" y2="1791.39" gradientTransform="matrix(765.86, -642.48, -570.28, -725.05, 34691, 2129362.21)" gradientUnits="userSpaceOnUse"><stop offset="0" stop-color="#fff" stop-opacity="0"/><stop offset="0.43" stop-color="#fff" stop-opacity="0.31"/><stop offset="1" stop-color="#fff"/></linearGradient><linearGradient id="linear-gradient-2" x1="1288.14" y1="1792.34" x2="1289.32" y2="1792.25" gradientTransform="matrix(535.51, -212.9, -164.95, -527.12, -393747.39, 1220732.14)" gradientUnits="userSpaceOnUse"><stop offset="0" stop-color="#fff" stop-opacity="0"/><stop offset="1" stop-color="#fff"/></linearGradient><linearGradient id="linear-gradient-3" x1="1290.25" y1="1790.54" x2="1291.44" y2="1790.54" gradientTransform="matrix(-149.87, -2376.05, -2376.05, 149.87, 4450619.32, 2799858.59)" gradientUnits="userSpaceOnUse"><stop offset="0" stop-opacity="0"/><stop offset="1"/></linearGradient><linearGradient id="linear-gradient-4" x1="1290.84" y1="1790.95" x2="1292.03" y2="1790.95" gradientTransform="matrix(-331.53, -915.36, -915.36, 331.53, 2070473.41, 590320.15)" gradientUnits="userSpaceOnUse"><stop offset="0" stop-color="#2d4584"/><stop offset="1" stop-color="#0c1e4f"/></linearGradient><linearGradient id="linear-gradient-5" x1="1290.53" y1="1789.14" x2="1291.71" y2="1789.14" gradientTransform="matrix(17.95, -1157.45, 1157.45, 17.95, -2091213.6, 1463536.2)" xlink:href="#linear-gradient-2"/><linearGradient id="linear-gradient-6" x1="1291.98" y1="1789.24" x2="1293.17" y2="1789.66" gradientTransform="matrix(-293.57, -379.54, 683.73, -86.63, -841829.87, 646934.02)" xlink:href="#linear-gradient-2"/></defs><g id="c99"><g id="c27"><rect class="cls-2" width="4500" height="2499.99"/><path class="cls-3" d="M530.31,2500H3287.52c-144.64-71.7-285.81-151.09-425.06-242.59-235.86-155-446.28-340.54-737.51-386C1296.45,1742.16,919.34,2128.79,530.31,2500ZM4500,532.51V0H1749.55C2040.91,182.11,2426.29,295.79,2682,381.36c296.88,99.33,603.25,123,914.48,124.42C3887.79,507.14,4215.75,486.3,4500,532.51Z"/><rect class="cls-1" width="4500" height="2499.99"/><g class="cls-4"><path class="cls-5" d="M-18.27,1808.76,4658.15,306a9.33,9.33,0,0,0-5.68-17.77L-23.94,1791a9.35,9.35,0,0,0-6,11.74A9.31,9.31,0,0,0-18.27,1808.76Z"/><polygon class="cls-6" points="-289.69 2135.2 4878.59 494.46 4910.77 509.62 -257.52 2150.36 -289.69 2135.2"/><polygon class="cls-6" points="8.8 2275.85 5177.09 635.1 5209.26 650.26 40.97 2291.01 8.8 2275.85"/><polygon class="cls-6" points="307.3 2416.49 5475.58 775.75 5507.76 790.9 339.47 2431.65 307.3 2416.49"/><polygon class="cls-6" points="605.79 2557.15 5774.08 916.41 5806.25 931.57 637.96 2572.31 605.79 2557.15"/><polygon class="cls-6" points="904.29 2697.79 6072.57 1057.05 6104.74 1072.21 936.46 2712.95 904.29 2697.79"/><polygon class="cls-6" points="1202.78 2838.43 6371.07 1197.69 6403.24 1212.85 1234.95 2853.59 1202.78 2838.43"/><polygon class="cls-6" points="1501.28 2979.08 6669.56 1338.33 6701.73 1353.49 1533.45 2994.24 1501.28 2979.08"/><polygon class="cls-7" points="-274.66 1872.37 -245.97 1863.26 2248.45 3038.56 2219.76 3047.67 -274.66 1872.37"/><polygon class="cls-7" points="62.75 1765.25 91.44 1756.15 2585.85 2931.45 2557.16 2940.56 62.75 1765.25"/><polygon class="cls-7" points="400.15 1658.14 428.84 1649.03 2923.26 2824.34 2894.57 2833.45 400.15 1658.14"/><polygon class="cls-7" points="737.55 1551.03 766.25 1541.92 3260.66 2717.23 3231.97 2726.34 737.55 1551.03"/><polygon class="cls-7" points="1074.96 1443.92 1103.65 1434.81 3598.06 2610.12 3569.37 2619.23 1074.96 1443.92"/><polygon class="cls-7" points="1412.36 1336.81 1441.05 1327.7 3935.47 2503.01 3906.78 2512.11 1412.36 1336.81"/><polygon class="cls-7" points="1749.77 1229.7 1778.46 1220.59 4272.87 2395.89 4244.18 2405 1749.77 1229.7"/><polygon class="cls-7" points="2087.17 1122.59 2115.86 1113.48 4610.27 2288.78 4581.58 2297.89 2087.17 1122.59"/><polygon class="cls-7" points="2424.57 1015.47 2453.26 1006.37 4947.68 2181.67 4918.99 2190.78 2424.57 1015.47"/><polygon class="cls-7" points="2761.97 908.35 2790.66 899.25 5285.07 2074.55 5256.38 2083.66 2761.97 908.35"/><polygon class="cls-7" points="3099.39 801.24 3128.09 792.13 5622.5 1967.44 5593.81 1976.55 3099.39 801.24"/><polygon class="cls-7" points="3436.79 694.13 3465.48 685.02 5959.89 1860.32 5931.2 1869.43 3436.79 694.13"/><polygon class="cls-7" points="3774.18 587.01 3802.88 577.9 6297.29 1753.21 6268.6 1762.32 3774.18 587.01"/><polygon class="cls-7" points="4111.58 479.9 4140.27 470.79 6634.68 1646.1 6605.99 1655.21 4111.58 479.9"/><path class="cls-8" d="M-110.11,1628,4643.6,111.2l-14.35,160.36L-174.92,1826.78Z"/><path class="cls-9" d="M-103.66,1635.11l-95-58.53L4574.24,37.28,4628,119.56S-99.36,1612.05-103.66,1635.11Z"/><path class="cls-10" d="M2274.52,496.52a78.17,78.17,0,0,0-99.18-49.06l-821.6,121.61c-24.17,8.23-52.68,86.33-69,157.21-11.28,48.9-16.79,94.36-11.13,111.1l235.94,697.28a78.17,78.17,0,0,0,99.17,49.06l852.85-290.44c40.86-13.91,127.73-240.86,113.85-281.87Z"/><g class="cls-11"><path d="M727.62,1909c129.93,61.09,132.58,183,7.19,271-125.39,88.3-331.73,110.28-461.92,48.95-129.39-61.15-132.56-182.18-6.91-270.5S598.5,1847.84,727.62,1909Z"/><path d="M727.62,1909c129.93,61.09,132.58,183,7.19,271-125.39,88.3-331.73,110.28-461.92,48.95-129.39-61.15-132.56-182.18-6.91-270.5S598.5,1847.84,727.62,1909Z"/></g><path class="cls-12" d="M329.25,2113.32l-1.06.11-87-401.24L894,1632.32l-71.27,428.42h0c-4.32,33.25-27.44,67.68-69.38,97.27-95.24,66.9-251.79,83.58-350.32,37C359.76,2174.6,335.15,2145.35,329.25,2113.32Z"/><path class="cls-13" d="M844.33,1931l-14.72,88.51c-71.1,68.87-145.39,139.26-225.88,196.3-52.37,8.59-106.35,7.52-153.38-4.13,22.1-13.95,43.6-28.93,65.14-44.28,85.81-61.2,179.69-114.11,262.34-180C799.83,1969.85,822.2,1950.7,844.33,1931Zm47.1-283.16L849.49,1900c-111.17,89.41-228.57,168.65-350.72,242.73-31,18.79-62.17,36.52-93.95,53.2l-1.83-.85c-43.22-20.48-67.83-49.71-73.73-81.74l-1.08.11-5.19-24c21.66-8.51,41.06-16.87,54-22.4,179.65-76.56,323.72-228.29,462.06-365C857,1684.43,873.66,1665.62,891.43,1647.82Z"/><path class="cls-14" d="M795,1506.85c129.67,61.66,132.58,183,6.66,271.34C676,1866.51,469.68,1888.5,340,1827.11c-129.38-61.15-132.56-182.18-6.9-270.5S665.64,1446,795,1506.85Z"/><path class="cls-15" d="M795,1506.85c129.67,61.66,132.58,183,6.66,271.34C676,1866.51,469.68,1888.5,340,1827.11c-129.38-61.15-132.56-182.18-6.9-270.5S665.64,1446,795,1506.85Z"/><path class="cls-16" d="M724.55,1551c95,45,96.74,133.32,5,198.22C638,1813.55,487,1829.63,392,1784.91c-94.47-44.78-97-133-5.22-197.91C478.88,1522.88,630.09,1506.5,724.55,1551Z"/><path class="cls-17" d="M324.48,1718.26S77.59,1435.59,303.58,856c0,0,213.14,243.1,107.1,936.7C410.42,1792.73,363.77,1780.05,324.48,1718.26Z"/><path class="cls-16" d="M306.06,859.54c9,213,28,582.66,63.41,909.86,23.15,18.17,40.95,23.33,40.95,23.33C509.32,1146.05,330.82,891.11,306.06,859.54Z"/><path class="cls-17" d="M441.77,1668S242.13,1347.46,547.89,801.19c0,0,172.75,275.91-32.27,954.26C515.62,1755.45,471.79,1735.69,441.77,1668Z"/><path class="cls-16" d="M547.89,801.19c-22.62,214.46-74.83,588.73-87.89,921.64,19.75,22.33,36.79,30,36.79,30C722.17,1155.4,567.35,836.32,547.89,801.19Z"/><path class="cls-17" d="M457,1801.34S166.2,1728.88,85,1265.65c0,0,250.63,62.35,463.64,545.75C548.63,1811.4,510.24,1823.36,457,1801.34Z"/><path class="cls-16" d="M88.23,1266.66c94.55,131.11,260.93,356.11,421.57,547.52,23.9,1.79,38.56-2.75,38.56-2.75C350.2,1360.66,119,1275.88,88.23,1266.66Z"/><path class="cls-17" d="M584.28,1742.16S426.1,1579.82,546,1224.41c0,0,136.28,139.69,93,560C639,1784.39,610.2,1778.23,584.28,1742.16Z"/><path class="cls-16" d="M547.9,1226.37c11.62,127.73,34.19,349.32,65.37,544.74,14.68,10.11,25.74,13,25.74,13C679.35,1392.92,563.81,1244.5,547.9,1226.37Z"/><path class="cls-17" d="M650.54,1620s-153-255.74,94.43-683.4c0,0,132.51,220.74-37.81,753.39C707.16,1690,673.06,1674.06,650.54,1620Z"/><path class="cls-16" d="M746.65,939.93C726.1,1109.37,693,1403.42,678.8,1666.12c15.36,17.37,28.36,23.85,28.36,23.85C865.85,1193.31,761.42,968.5,746.65,939.93Z"/><path class="cls-16" d="M689.28,1666.9S650,1441.66,926,1197.22c0,0,34.37,194-215.6,535C710.39,1732,691.49,1711.74,689.28,1666.9Z"/><path class="cls-17" d="M926.32,1199.9c-57,116.85-152.74,321.18-229.27,508,6.22,16.44,13.35,24.37,13.35,24.37C943.39,1414.2,929.21,1224.3,926.32,1199.9Z"/><path class="cls-18" d="M2538.47,948.23l-915.3,381.5L1506.3,1525.16l3.22,9.5a78.27,78.27,0,0,0,65.48,52.76l47-8.24,839.54-285.9c40.87-13.92,127.71-240.87,113.84-281.86Z"/><path class="cls-19" d="M1330.72,1929.21l-41.14-148L2671,1315.56c42.07-14.22,104.82-5.43,140.07,19.62l1257.57,893.68c35.26,25,29.74,56.93-12.33,71.16L2639.2,2779.15c-42.07,14.23-104.83,5.43-140.08-19.62Z"/><path class="cls-20" d="M1519.15,2619l-230.4-836L4250.2,2246.83l86.69,314.35Z"/><path class="cls-10" d="M1300,1795.63c-16.78-11.92-17.15-25.36-6.35-104.54,6.8-49.83,10.42-112.42,21.15-109.46l1480-280.91c42.07-14.22,104.83-5.43,140.07,19.62l1336.85,718.58c8.72,6.6.78,76.76-2.57,139.26-4.13,77.26-9.18,99.69-32.38,107.35L2763.06,2764.32c-42.07,14.22-104.83,5.42-140.08-19.63Z"/><path class="cls-21" d="M1294.22,1689c-1.33,8.39-2.66,16.58-3.24,25.29l1332.45,946.88c36.42,25.9,101.29,35,144.76,20.29L4269.5,2173.8c.54-9.43.71-15.89,1-24.69L2768.72,2656.87c-42.06,14.23-104.83,5.44-140.08-19.61Zm1368.85-35.63c-260.12-37.85-524.42-52-789.45-39.13-5.08.26-10.33.48-15.74.71l617.25,206.45c58.76,19.66,128,21.48,177.67,4.69s70.78-49.17,54.17-83.09Z"/><path class="cls-22" d="M1376.48,1641.58c-35.25-25-29.73-56.93,12.34-71.15l1417.12-479.14c42.07-14.22,104.82-5.43,140.07,19.62l1257.57,893.68c35.26,25.06,29.74,56.94-12.33,71.16L2774.13,2554.89c-42.07,14.22-104.83,5.42-140.08-19.63Z"/><path class="cls-23" d="M1376.48,1641.58c-35.25-25-29.73-56.93,12.34-71.15l1417.12-479.14c42.07-14.22,104.82-5.43,140.07,19.62l1257.57,893.68c35.26,25.06,29.74,56.94-12.33,71.16L2774.13,2554.89c-42.07,14.22-104.83,5.42-140.08-19.63Z"/><path class="cls-24" d="M2516,2451.4c-4.37-56.63,36.06-112.43,5.39-149.67-67.31-81.68-408.62-251.8-414.57-331.82-3.61-48.62,32.2-69.66,53.93-103l78.07-18c219.82,28.25,391.45,275,599.9,236.18,55.7-10.4,344.95-84,362.09-150.64,4.57-17.74,5.48-40.36-2.59-57.38-13.28-28-183.82-239.68-81.82-256.63,71.12-11.82,489.94,214.66,552.37,258.57,53.19,37.4,100.2,116.44,135.41,170.63,19.89,30.59,62.08,78,90.39,126.43L2774.11,2554.88c-42.06,14.23-104.81,5.43-140.07-19.62Z"/><path class="cls-19" d="M2137.24,1889.58c-27.27-.65,3,60.53,6.89,68.55,30.5,62.47,83.33,103.19,137.55,144,39.31,29.57,85.3,49.41,127.15,75,136,83.24,248.43,226.24,418.53,144.2,24.17-11.66,51.18-26.67,65.88-50.32,8.47-13.63,7.66-27.57,7.66-43,0-73.86-72.65-109.06-126.57-145.19-146.63-98.27-387.21-199.64-564.87-186"/><path class="cls-19" d="M3120.55,1623.62c-8.72.76-7.15,10.69-7.25,17.63-.94,60.6,58.93,126.88,100.48,166.27,68.53,65,154.94,87.18,234.31,133.43,68.74,40.08,126.18,108.22,206.68,125.37,22.64,4.82,54.17,3,76.22-2.74,72.43-18.89,22-74.45-3.47-116.76-43.8-72.91-171.12-170.28-250.38-193.89"/><path class="cls-25" d="M1849.14,1449.94l682-158.44c-16.65-30.37-22.21-57.06,3.91-73.22l256.57-87c42.06-14.22,104.82-5.43,140.07,19.61l1257.57,893.68c10,7.13,16.75,14.81,20.28,22.47,24.45-16.2,23.26-41.67-6-62.45L2946,1110.91c-35.26-25.05-98-33.84-140.08-19.62L1388.8,1570.44c-30.09,10.17-41.47,29.39-32.6,48.67a78.31,78.31,0,0,1,18.3-8.69l249.33-83.55a251.83,251.83,0,0,1,155.27-1.53c177.58,55.69,607.89,190.41,742.75,230.53,90,26.77,221.49-7.52,198.45-88.66S2521,1485.41,2521,1485.41Z"/><path class="cls-21" d="M1329.09,1635.5c-36.43-25.89-30.71-58.84,12.75-73.54l1464.64-495.2c43.46-14.69,108.34-5.61,144.77,20.28L4251,2010.68c36.43,25.88,30.71,58.84-12.75,73.53l-1464.64,495.2c-43.46,14.7-108.34,5.61-144.76-20.27Zm381.19-173.76,770.23,257.62c58.77,19.65,128,21.48,177.69,4.68s70.77-49.16,54.17-83.07L2494.7,1196.52,2806,1091.29c42.05-14.22,104.83-5.43,140.07,19.61L4203.6,2004.59c35.25,25.05,29.7,56.93-12.35,71.15L2774.12,2554.88c-42.07,14.22-104.82,5.43-140.07-19.62L1376.47,1641.58c-35.24-25-29.72-56.93,12.35-71.15Z"/><path class="cls-26" d="M1329.09,1635.5c-36.43-25.89-30.71-58.84,12.75-73.54l1464.64-495.2c43.46-14.69,108.34-5.61,144.77,20.28L4251,2010.68c36.43,25.88,30.71,58.84-12.75,73.53l-1464.64,495.2c-43.46,14.7-108.34,5.61-144.76-20.27Zm267.5-135.32a356.78,356.78,0,0,1,227.5-.38l656.42,219.56c58.77,19.65,128,21.48,177.69,4.68s70.77-49.16,54.17-83.07c0,0-131.93-269.39-190.38-388.71a54.5,54.5,0,0,1,31.36-75.57l252.6-85.4c42.05-14.22,104.83-5.43,140.07,19.61L4203.6,2004.59c35.25,25.05,29.7,56.93-12.35,71.15L2774.12,2554.88c-42.07,14.22-104.82,5.43-140.07-19.62L1376.47,1641.58c-35.24-25-29.72-56.93,12.35-71.15Z"/><path class="cls-27" d="M2470.39,1289.32l94.51,194.38c-164.21,1.36-278.38,38.72-335.25,117.34L1894.2,1489.52Q2087.61,1326.64,2470.39,1289.32Z"/><path class="cls-23" d="M2551.87,1483.89,2463.42,1302q-370.22,36-563.19,189.57l-6-2q193.41-162.88,576.2-200.21l94.5,194.4Q2558.33,1483.76,2551.87,1483.89Z"/><path class="cls-28" d="M2448.89,1335.76l-10.13-20.66c-1.14-2.34,1.43-4.39,5.76-4.57s8.77,1.57,9.93,3.91l10.13,20.66c1.14,2.34-1.44,4.39-5.76,4.57S2450,1338.11,2448.89,1335.76ZM1972.74,1496l-36.12-11.63c-4.11-1.32-6-4-4.16-5.92s6.59-2.45,10.69-1.13l36.13,11.64c4.1,1.31,6,4,4.15,5.91S1976.84,1497.36,1972.74,1496Zm17.06-18.61-15.15-6.39c-3.78-1.6-4.92-4.29-2.52-6s7.41-1.83,11.19-.24l15.17,6.39c3.78,1.59,4.9,4.29,2.5,6S1993.58,1479,1989.8,1477.43Zm407.13-144-8.21-11.61c-1.64-2.31.42-4.54,4.6-5s8.88,1.06,10.51,3.36l8.2,11.62c1.63,2.3-.43,4.54-4.6,5S2398.56,1335.7,2396.93,1333.4Zm-379.56,125.86-14.35-6.9c-3.58-1.72-4.3-4.42-1.62-6s7.77-1.5,11.35.23l14.33,6.9c3.59,1.72,4.31,4.42,1.63,6S2020.94,1461,2017.37,1459.26Zm42-15.44-32.53-15.16c-3.64-1.7-4.48-4.39-1.85-6s7.68-1.58,11.32.11l32.54,15.17c3.62,1.7,4.45,4.39,1.84,6S2063,1445.51,2059.4,1443.82Zm244.88-88.21-16.15-21.3c-1.73-2.3.21-4.57,4.34-5.08s8.88.94,10.62,3.24l16.13,21.3c1.74,2.3-.2,4.57-4.32,5.08S2306,1357.9,2304.28,1355.61Zm40.93-16.09-7-11.78c-1.38-2.33.95-4.47,5.21-4.78s8.85,1.33,10.22,3.66l7,11.78c1.38,2.33-1,4.47-5.23,4.78S2346.58,1341.85,2345.21,1339.52Zm-180.28,56.31-25.57-17.95c-2.89-2-2.48-4.64.93-5.82a14.29,14.29,0,0,1,11.43,1.56l25.57,18c2.91,2,2.48,4.64-.91,5.81A14.35,14.35,0,0,1,2164.93,1395.83Zm-85.4,28.05-14-7.53c-3.39-1.83-3.77-4.51-.85-6s8.05-1.19,11.43.64l14,7.54c3.4,1.83,3.79,4.51.87,6S2082.91,1425.71,2079.53,1423.88Zm34-16.37-14-7.53c-3.38-1.84-3.77-4.52-.85-6s8.06-1.19,11.44.64l14,7.53c3.39,1.83,3.77,4.51.85,6S2116.91,1409.34,2113.52,1407.51Zm128.62-47.25-8.42-10.64c-1.8-2.29.06-4.59,4.15-5.13s8.89.86,10.7,3.15l8.42,10.64c1.8,2.29,0,4.59-4.14,5.13S2244,1362.54,2242.14,1360.26Zm-41.55,11.85-10.08-9.17c-2.38-2.18-1.26-4.66,2.52-5.54s8.79.17,11.18,2.35l10.1,9.17c2.38,2.18,1.26,4.66-2.52,5.54S2203,1374.29,2200.59,1372.11Z"/><path class="cls-28" d="M2321.68,1482.33a14.49,14.49,0,0,1,7.53,3.86c1.5,1.71,1.62,3.55.31,5L2314,1509c-1.31,1.5-3.95,2.5-7.2,2.73a22,22,0,0,1-9.69-1.52c-22.62-9.3-123.85-47.07-166.47-64.62-4.93-2-6.9-5.41-4.64-7.94s8.1-3.47,13.69-2.18C2188.05,1446.54,2296.18,1476.48,2321.68,1482.33Z"/><path class="cls-29" d="M2433.7,1572.31c-7.7,2.6-11.44-8.29-15-4.14-8.33,9.6-7.32,35.14,7.64,45.77,21.4,15.21,64.75,20.35,90.3,11.71,16.61-5.61,20.38-29.07,17.52-39.66-1.55-5.7-7.88,3.55-15.37-1.77C2497.35,1569,2459.24,1563.67,2433.7,1572.31Z"/><ellipse class="cls-30" cx="2474.96" cy="1582.32" rx="30.99" ry="60.75" transform="matrix(0.13, -0.99, 0.99, 0.13, 590.39, 3835.67)"/><ellipse class="cls-31" cx="2461.38" cy="1221.37" rx="8.17" ry="16.02" transform="translate(936.55 3507.2) rotate(-82.69)"/><ellipse class="cls-31" cx="1796.81" cy="1447.23" rx="8.17" ry="16.02" transform="translate(132.58 3045.15) rotate(-82.69)"/><path class="cls-29" d="M2512,1582.81s-13.46,16-41.9,10.28c-28-5.67-34-23.76-34-23.76s16.65-30.79,46.24-23.91C2513.2,1552.59,2512,1582.81,2512,1582.81Z"/><path class="cls-32" d="M2004.85,1414.77q-61.44,33.3-110.65,74.75l36.65,12.18c130.21,7,261.8,14.37,392.71,25.1,61.09-28.3,142.07-42.28,241.34-43.09l-6.33-13C2374.87,1447.82,2189.25,1428.39,2004.85,1414.77Zm243.38-89.55a1160.93,1160.93,0,0,0-118.47,34.6c133.39,12.88,266.44,28.62,399.11,49.79l-24.47-50.35c-2.76-.4-5.39-.78-7.82-1.15C2413.58,1345.68,2331,1334.49,2248.23,1325.22Z"/><path class="cls-33" d="M2590-200.28S2615.47,75,2614.31,174.34s-11.84,82.45-41.42,169S2553.43,464,2592,544.15s33,58.23,33,58.23,43.05,296.09,55.87,542,27.52,623.33,27.52,623.33,121.9,46.11,162.51-8.71c0,0,22.85-410.52,98.89-738s-65.94-508.58-67-602.87S2974-102.71,2991.13-172,2590-200.28,2590-200.28Z"/><path class="cls-34" d="M2903.16-209.52c1.4,18,3.1,36.08,2.06,54.07-7.79,134.1-18.55,269.84-36.07,403.07C2862,302,2782,389.7,2787.83,429.86c4.32,30,70.21,34.88,86.08,86,10.1,32.5,4,69.2,7.6,102.68,16.3,151.84,69.55,308.83,45.65,463.13-21.62,139.59-85.36,271.33-100.31,411.66-8.85,83,7,162.21,12.08,244.36.39,6.27.76,22.22,1.69,42.61,12.1-4.15,22.68-10.89,30.36-21.25,0,0,22.85-410.52,98.9-738s-66-508.57-67-602.86c-1-88.22,62.14-467.27,84.31-572.57-14-19.67-29.85-37-48-50.76C2928.3-207,2916.2-208.43,2903.16-209.52Z"/><path class="cls-33" d="M3488.71-242.12s25.51,275.25,24.36,374.63-11.84,82.44-41.43,169-19.45,120.71,19.15,200.82,33,58.23,33,58.23,43.06,296.09,55.87,542,27.53,623.33,27.53,623.33,121.89,46.12,162.5-8.71c0,0,22.86-410.52,98.9-738s-66-508.57-67-602.87,71.16-520.92,88.27-590.24S3488.71-242.12,3488.71-242.12Z"/><path class="cls-34" d="M3695.88-254c-.6,57.11,3.73,124.32,4.35,132.85,11.25,153.24,42.83,306,29.92,461-5.21,62.43-114.15,22.65-104.68,124.35,6.66,71.4,129.79,26.21,158.19,90.57,21.82,49.39,30,488.4,21.85,548.37-7,51-12.05,104.72-25.17,154.45-15.85,60.1-164.78,477.6-58.73,464.83,17.77-2.14,34.18-10.75,49.3-24.34,5.55-84.65,31.41-433.3,97.71-718.8,76.05-327.45-65.94-508.58-67-602.87-.92-80.59,51.69-403.89,77.7-539.48-1.78-2-3.63-4.08-5.48-6.11-34.63-37.69-74.34-62.22-117.2-84.53C3737.06-254.29,3716.51-254.32,3695.88-254Z"/><path class="cls-35" d="M2708.43,1687.44c-3.41-.57-11.56,1.22-13.41,4.68-4,7.43,5.05,21.56,3.83,30.12-1.68,11.76-8.69,17.09-6.33,30.4,10.75,60.65-3.7,137.56-77.35,143-59.3,4.36-159.08-38-205.22-72.47-32.1-24-65-77.44-110.56-72.11-30.28,3.54-32.45,26.82-53.7,41.47-49.21,33.92-73.05,17-108.9,72.37-9.59,14.82-20.12,32.69-11.8,50.26s38,28,52.06,41.95c39.21,39.1,79.83,68.24,129,94.68,17.07,9.2,35.48,14,53.23,21.26,34.17,14,68.76,34.2,98.28,56.33,53.07,39.8,98.5,106.3,165.7,123.54,32.12,8.24,63.14,14.34,96.41,14.88,25.82.41,51,2.21,76.57-2.91,152.64-30.54,61.46-218.1,70.88-318.64,5.48-58.43,16.7-116.23,23.95-174.4,5.14-41.35,17.36-45.24-2.83-82.28-1.49-2.73.79-9.11-.95-11.11-8.58-9.85-50.8,29.5-57.22,33C2805.6,1724.91,2732.57,1708.5,2708.43,1687.44Z"/><path class="cls-36" d="M2709,1687.94c24.73,20.81,96.78,36.85,121,23.54,6.42-3.53,48.65-42.9,57.23-33,1.73,2-.55,8.38.94,11.11,20.2,37,8,40.93,2.84,82.28-7.24,58.17-18.48,116-24,174.39-9.42,100.55,81.75,288.11-70.88,318.65-25.56,5.12-50.74,3.32-76.57,2.9-33.27-.52-64.29-6.63-96.41-14.87-67.19-17.24-112.64-83.74-165.7-123.53-29.53-22.14-64.1-42.32-98.27-56.34-17.75-7.29-36.17-12.07-53.24-21.25-49.13-26.44-89.76-55.59-129-94.68-14-14-43.71-24.3-52.07-42s2.21-35.43,11.8-50.26c35.85-55.35,59.68-38.46,108.9-72.37,20.31-14,23.19-35.86,49.81-40.88,7.7,16.33,4,25.53-18.6,44.31-1.46,1.21-2.89,2.66-3,4.74-.26,5.29,36.8,29.45,28.27,35.12-20.75,13.74-45.73-14.22-68-12-16.45,1.6-82.66,55-69.86,76.74,18.56,31.62,66.19,26.44,93.2,42.14,21.82,12.68,11.2,35.63,25.58,52.31,9.88,11.46,214.73,131,248.78,160.5,148,128.38,235.39,41.72,253.59,23.37,18-18.19,72.47-75.27,74.39-100.44,1.6-20.83-13.61-42.18-14.05-63.65-1-50,17.34-112.73,3.29-160.65-5.47-18.66-116.56-29.91-108.36-57.85,6.85-23.35,88.56,39.45,83.27-11.57-2.56-24.72-132.5,15.58-105.77-31.88,9.7-17.24,77.76,14.16,98.65,11.61,11.68-1.42,52.65-24.16,54.28-37.65,3.76-30.91-34.27,2.49-40.14,4.59-18.05,6.45-43.34,5.88-61.77,1.64C2743.43,1727,2714.47,1709.2,2709,1687.94Z"/><path class="cls-36" d="M2709,1965.29c-3.64,36-12.64,69.81-21.83,104.48-2.28,8.64,19.31,30.3,24.82,21.13,5.1-8.52.27-86.44.68-102"/><path class="cls-37" d="M2336.12,297.78a78.17,78.17,0,0,0-99.18-49.06L1384.09,539.15a78.55,78.55,0,0,0-48.91,99.49l235.94,697.28a78.17,78.17,0,0,0,99.17,49.06l852.85-290.43a78.54,78.54,0,0,0,48.91-99.49Z"/><path class="cls-27" d="M2319.12,320.85A74.7,74.7,0,0,0,2224.35,274L1409.4,551.49a75.05,75.05,0,0,0-46.74,95.07l225.46,666.29a74.69,74.69,0,0,0,94.76,46.88l814.95-277.52a75.06,75.06,0,0,0,46.74-95.07Z"/><path class="cls-38" d="M1979.48,479.31c-6.88-20.27,3.55-42.21,23.29-49l229.57-78.52c19.74-6.75,41.36,4.22,48.25,24.5l61.82,181.91c6.89,20.27-3.55,42.21-23.29,49l-229.57,78.52c-19.74,6.75-41.36-4.23-48.25-24.5Z"/><path class="cls-37" d="M2265.38,493.54l14.13-4.84,30.12,88.61-14.14,4.84Zm-38.63,69.62,14.13-4.84,12.94,38.08-14.14,4.83ZM2115,601l14.14-4.83,13,38.38-14.14,4.83Zm-62.16.37,14.14-4.83,19.4,57.09-14.13,4.84Zm82.48-32.22,14.14-4.84,20.63,60.7L2156,629.86Zm111.52-38.44,14.14-4.84,20.71,61-14.13,4.84Zm-60.07,6.54,14.14-4.83,25,73.5-14.14,4.84ZM2074.71,574l14.14-4.84,25.46,74.93L2100.18,649Zm79.06-42.31,14.14-4.84L2198,615.48l-14.14,4.84Z"/><path class="cls-37" d="M2238.81,415.36l14.14-4.83,18,53-14.14,4.83Zm-59.63,7.83,14.14-4.84,21.84,64.27L2201,487.46ZM2061.66,444l14.14-4.83,27.75,81.67-14.14,4.84Zm-36.57,75.68,14.13-4.84,8.53,25.09-14.14,4.83Zm76-51.18,14.14-4.83,16.18,47.63-14.13,4.83ZM2200,392.69l14.14-4.83,29,85.22-14.14,4.83Zm-36.42,76.13,14.14-4.84,9.58,28.18L2173.12,497Zm-115.76,25.94,14.14-4.83,13.73,40.4-14.14,4.84Zm91.76-4.93,14.13-4.84,5.68,16.72-14.13,4.83Z"/><path class="cls-39" d="M2537.84,967.29,1579.9,1288.57l8.22,24.28a74.68,74.68,0,0,0,94.76,46.88l815-277.53a75,75,0,0,0,46.73-95.06Z"/><path class="cls-23" d="M1360,608.63a74.4,74.4,0,0,1,40.85-33.81l815-277.53a74.7,74.7,0,0,1,94.77,46.88L2536,1010.45a74.63,74.63,0,0,1,2.68,37.93,74.92,74.92,0,0,0,5.89-61.24L2319.11,320.85A74.68,74.68,0,0,0,2224.35,274L1409.4,551.49A74.87,74.87,0,0,0,1360,608.63Z"/><polygon class="cls-40" points="1545.82 573.49 1554.72 570.69 1778.36 1285.76 1769.46 1288.56 1545.82 573.49"/><polygon class="cls-40" points="2259.86 714.69 2309.86 697.87 2326.62 748.03 2276.63 764.85 2259.86 714.69"/><polygon class="cls-41" points="2278.24 769.67 2328.24 752.86 2345 803.01 2295.01 819.83 2278.24 769.67"/><polygon class="cls-42" points="2296.62 824.66 2346.62 807.84 2363.38 858 2313.38 874.82 2296.62 824.66"/><polygon class="cls-8" points="2315 879.64 2364.99 862.82 2381.76 912.98 2331.76 929.8 2315 879.64"/><polygon class="cls-21" points="2334.28 937.32 2384.27 920.5 2401.04 970.66 2351.04 987.48 2334.28 937.32"/><polygon class="cls-21" points="2353.56 995 2403.55 978.18 2420.32 1028.34 2370.32 1045.16 2353.56 995"/><path class="cls-43" d="M1796.38,499.07c-5.62-3.09-11-6.87-15-11.39-.55-.62,1.13-2.89,1.41-3.59,1.38-3.56,2.43-7.16,3.63-10.77,5.91-17.82,17.18-29.4,35.41-35.5,3.76-1.26,21.61-6.67,19.14,2.66l-1.65,4.26c6.31-13.2,18.55-9.74,26.39.59,5.56,7.33,5.89,19.22,3.67,28.15,1.7-.37,4,.24,6,4.58,3.73,8.15,3.55,16.29,1,19.06s-2.59,2.52-2.59,2.52a103.85,103.85,0,0,1,2.68,14.85c.5,6.37-2.65,13.72-2.65,13.72l11.67,21.89a311.82,311.82,0,0,1,30.88,7.55s32.17-8.62,46.75,8.72,16.61,31.18,20.77,40.77,16.65,24.65,21.47,46.43S2012,678.71,2017.2,688s12.83,21.61,17.31,43.79A284.55,284.55,0,0,0,2047.44,775s9.11,28.68,8.14,36-2.84,24.56-6,30.36-9.82,8.28-9.82,8.28A184.81,184.81,0,0,1,2034,832c-1.86-7.52.49-16.06,0-20.85s-3.31-5.59-4.68.17-1.43,12.7-4.3,9.61-3-14.1-2.87-18.32,7.65-17.27,6.91-19-15.81-31.87-25.31-45.68-15.27-26.48-17.59-37.91c0,0-12.11-19.48-18.35-32.55s-10.69-24.71-10.69-24.71,5.51,33.91,6.23,55.35,2.33,30.9,5,38.35,24.57,41.15,29,50.52,33.84,60.34,41.62,101.66,13.69,86.37,17.29,95.94,11.56,33,15.17,55.09,2.77,52.67,6.92,69.3,7,24.36,7,24.36,27.34,25.16,34.79,33.27-1.76,8.33-7.46,15.69-20.24,6.41-23.8-1-10.56-21.26-13.64-25.53-10.3-6.54-12.18-13-2.14-17.62-2.14-17.62-14.79-42.42-24.37-65.74-15.35-53.54-18-68.76c0,0-18.68-37.2-30.51-64.76s-31.95-81.18-31.95-81.18l-1.52-1.68-.16,2.08S1971,899.94,1978.36,929s15.09,70,15.09,70c7.17,13.66,20.94,41.15,27.5,65.5s20.55,67,20.55,67,6.56,9,9,15.3-1.91,12.48-1.76,17.75,3,20.55,4.67,28.6-9.28,17.69-18.27,15.32-16.42,3.07-15.43-7.9,7.41-47.64,7.41-47.64-2.41-7.88-9.2-23.6-26-39.44-36.58-59.2-18.43-43.19-21.38-53-25.6-49.14-44.5-86.67-26.48-96-28.67-106.08-5.3-50.2-7.67-57.77-6.85-16-19.28-33.49-28.65-47.73-28.65-47.73,3.52,12,6.52,26.14,5.19,37,5.19,37c5.1,10.48,8.21,24.05,9.06,40.81s7.19,49.91,7.63,51.71,14.31,7.56,17,10.83,9.26,12.08,8.86,16.28-4.66-1.27-9.24-5-6.32-1.4-3.82,2.72,9.54,9.47,12.62,16.56a181.5,181.5,0,0,1,6.14,17.53s-6.75,2.09-12.8-.58-18-15.16-23.2-20.41-15.43-33.57-15.43-33.57a284.1,284.1,0,0,0-16-42.19c-9.9-20.33-11.38-34.79-12.83-45.32s-2.1-14.27-11.48-34.5-8.62-39.78-11.14-49.94-9.31-22.37-8.27-45,31.81-35.47,31.81-35.47a314.46,314.46,0,0,1,19.91-24.85l-4-24.49s-6.93-3.91-10.42-9.26a105.66,105.66,0,0,1-6.87-13.42s.1.24-3.59-.42-8.78-7-10.75-15.74C1795.38,502,1795.68,500.21,1796.38,499.07Z"/><path class="cls-44" d="M1956.13,844.7c-.41-1.4-.78-2.81-1.09-4.22s-4.07-13.61,1-8.77c5.88,5.64,27.55,58.51,32.18,69.25,9.28,21.54,17.7,43.6,27.09,65.09,3.13,7.15,13.31,5.51,15.58,14.54.77,3.1-6.79,7-6.09,11.27,4.42,26.81,12,51,20.7,76.91,6.94,20.46,14.6,39.62,23,59.34,3.77,8.79,2.31,15.06,8.44,25.13,6.61,10.83,15.85,23.06,25.07,31.84a9,9,0,0,1,1.44,2.14c-5.94.81-12.37-1.29-14.58-5.9-3.55-7.4-10.56-21.26-13.64-25.53s-10.3-6.54-12.18-13-2.14-17.62-2.14-17.62-14.79-42.42-24.37-65.74-15.35-53.54-18-68.76c0,0-18.68-37.2-30.51-64.76s-31.95-81.18-31.95-81.18ZM1879.61,856c-9.35-9-23.09-7.31-27.15-22.75-4-15.18-7.77-30.78-11.06-46.11-1.83-8.55-1.31-17.59-4.08-25.85-1.43-4.23-2.73-7.43-7.15-9.36-2-.89-8.93-2.21-9.25-4.91-.75-6.62,7.64-2.44,8.27-8.47,1.46-14.09-1-30.88-4.61-44.5-3.55-13.42-7.37-26.23-11.83-39.37-.86-2.53-4.84-11.2-.45-12.22,6.43-1.49,10.3,17,12.2,21.15,5.37,11.74,17.84,15,29.83,14.45,7.19-.36,35.85-9.87,39.56-16.75,2.42-4.5-1.4-13-2.78-17.15-.77-2.36-4.83-6.91-2.37-7,.4,0,2.3,4.44,2.82,5.09,3.58,4.47,6.81,19.36,13.15,19.91,7.54.64,18.32-6.2,25.46-8.63.87-.29,8.24-3.31,7,.47-3.37,10.22-14.57,8.53-22.9,12.34-7.38,3.37-13.84,8.18-20.84,11.94-12.56,6.73-32.23,9.16-34.21,26.77-1.25,11.28,11.28,27.43,16.53,37.23,2.24,4.18,3.35,9.5,6.63,13s12,0,14.06,4.92c3.27,7.71-7.32,25.08-6.37,33.57a118.23,118.23,0,0,0,8.67,32.07c2,4.57,9.72,6.05,9.5,11.11-.11,2.63-9.7-2.81-10-.58-.76,6.71,2.84,14.44,3.57,21.22,3.06,28.79,15.49,56.78,28.89,82,7.35,13.84,16.82,27.07,22,41.9,4.1,11.63,6.65,23.6,10.55,35.19.77,2.27,4.47,10.47.27,11.73h0c-1.58-4.55-2.81-8.41-3.63-11.18-2.8-9.26-23.25-45-41.45-80.65-2.64-7.17-5.4-14.31-8.39-21.38a97.81,97.81,0,0,0-4.77-9.35c-11.64-34.44-16.81-73.29-18.56-81.37-2.19-10.12-5.3-50.2-7.67-57.77s-6.85-16-19.28-33.49-28.65-47.73-28.65-47.73,3.52,12,6.52,26.14,5.19,37,5.19,37c5.1,10.48,8.21,24.05,9.06,40.81s7.19,49.91,7.63,51.71,14.31,7.56,17,10.83C1877.34,853,1878.45,854.38,1879.61,856ZM1828,545.7c2.88,1.5,5.86,2.84,8.9,4.07,1.69.68,15.7,1.13,16,2.13,1.35,4.13-11,4.12-12,5.47-2.71,3.74,0,9.83-2.73,14.13-2.63,4.12-9.12,5.46-12.42,9.08-3.75,4.14-4,10.81-7.57,14.49-6.5,6.7-16.6,7.66-25.43,10.18a76,76,0,0,1,19-12.15,314.46,314.46,0,0,1,19.91-24.85Z"/><path class="cls-44" d="M1952.54,726.61c-.33,3-2.91,8.95-2,12,.48,1.62,8.74,6.27,8.85,5.87,1.5-4.76-6.39-9.66-4.86-14.64"/><path class="cls-44" d="M1952.84,635.23c-1.95-4.54-3.36-9.31-4.94-14-1.44-4.25-3.25-8.4-4.71-12.69l-1.61-4.76c-.2-.61-1.26-1.85-.62-1.83,1.75.06,4.3,7.53,5.24,8.86,6.23,8.92,13.23,17.85,9.6,28.73"/><path class="cls-44" d="M1980.66,680c.65,3.28,4.59,12.53,8.12,13.39,3.37.82,11.32-5.52,12.8-1,1.19,3.67-7.57,10-10.42,8.84-4.2-1.65-6.51-8.83-7.77-12.46"/><path class="cls-35" d="M3579.78,1477.47c-11.61-11.27,7.4-39,22.63-37.66,10.81,1,21.11,18.38,32,22.59,33.23,12.87,68.93,21,105,17.95,19.84-1.66,65.81-23.5,67.42-22.41,13.36,9-7,34.75-8.48,44.93-2.48,17,12.34,35.2,6.93,50.15-3.38,9.35-16.35,12-19.54,21.7-6.24,19-1.78,45.55-4.06,65.58-7.22,63.28-10,128.17-5.21,191.93,1.94,25.61,6.69,51.36,7.67,77,1.31,34.5-5.5,76.93-38.14,95.84-73.4,42.56-138.64,7.39-196.56-43.74-21.19-18.72-36.88-41.54-61.13-57.14-18.9-12.17-40.83-18.44-61-28-35.65-17-70.3-36.37-106.1-53.39-61.63-29.27-119.2-55.33-165.75-107.69-12.7-14.31-66.75-105.52-41.35-122.07,20.28-13.24,93.16,4.29,120.3,1.52,29.69-3,32.29-9.07,64.28-3,18.75,3.54,183.6,98,253.77,81.62C3601.7,1661.54,3585,1538.33,3579.78,1477.47Z"/><path class="cls-36" d="M3791.63,1463.46c8.53-3.43,14.62-5.91,15.2-5.53,13.36,9-7,34.75-8.48,44.92-2.48,17,12.34,35.22,6.92,50.16-3.38,9.35-16.35,12-19.54,21.7-6.23,19-1.77,45.54-4.05,65.58-7.23,63.28-10,128.18-5.21,191.93,1.94,25.6,6.69,51.36,7.65,77,1.33,34.49-5.48,76.93-38.11,95.84-73.41,42.55-138.65,7.38-196.57-43.75-21.2-18.71-36.88-41.53-61.14-57.14-18.89-12.17-40.82-18.44-61-28-35.66-17-70.31-36.38-106.1-53.38-61.65-29.29-119.21-55.33-165.75-107.7-12.72-14.31-66.75-105.52-41.36-122.08,20.29-13.23,93.16,4.3,120.29,1.54l3.07-.33c-4,23.74-52.68-4.67-74.87,18.19-7,7.21-8.46,19-4.85,28.34,9.15,23.66,168.61,164.39,193,176.54,26.24,13.08,64.57,28.3,93.19,34.43,10.81,2.31,33.8,10.9,44.46,5.08,5.15-2.82-6.4-37.24,26.4-22.32,28.75,13.09,9.28,78.14,49.41,100.59,51.38,28.76,148.83,43.75,189.73-10.06,42.71-56.22-12.74-178.19-7.94-247.12,1.6-23.2,21.63-66.2,13.15-89-1.94-5.23-121.6-19.38-115.66-40.53,1.3-4.64,16.64.67,18.67,1.36,17,5.73,118.49,29.83,126.68-2.26,3.85-15.08-41.89-3.7-44.73-21.17-3.14-19.19,29.78-16.93,41-31.84C3792.36,1484.81,3790.82,1473.62,3791.63,1463.46Z"/><path class="cls-45" d="M1475,678.68,1268.33,820.83l58.05,174.51,166.51-49.28a58.5,58.5,0,0,0,39.4-72.59Z"/><path class="cls-46" d="M1348.94,178.06a58.27,58.27,0,0,0-72.37-39.51L386.47,402c-10.7,3.16-9.68-20-16.64-12.24-6.4,7.14-21.11,44.91-23.42,54.23a58.34,58.34,0,0,0,.66,30.6l169.26,575.55a58.25,58.25,0,0,0,72.36,39.51L1478.8,826.2a58.06,58.06,0,0,0,32.22-24c4.53-6.93,21.33-49.21,22.63-57.49s-12.94,17.46-15.45,8.9Z"/><path class="cls-47" d="M1363,142.39a58.26,58.26,0,0,0-72.36-39.52L400.5,366.32a58.49,58.49,0,0,0-39.39,72.59l169.26,575.55A58.24,58.24,0,0,0,602.73,1054l890.1-263.45a58.49,58.49,0,0,0,39.4-72.58Z"/><path class="cls-48" d="M1334,161.49a45.64,45.64,0,0,0-56.7-31L426.62,382.31a45.85,45.85,0,0,0-30.87,56.88L559.31,995.35a45.64,45.64,0,0,0,56.7,31l850.7-251.78a45.83,45.83,0,0,0,30.87-56.88Z"/><path class="cls-12" d="M570.8,589.78,590,584.09,571.77,557Zm-12.95-47.63,17.91-5.3L625,605l-17.19,5.08-9.49-14.19-27.94,8.27-.65,17.19-16.57,4.91Z"/><path class="cls-12" d="M661.42,563.35q-2.35-8-7-11.18a11.45,11.45,0,0,0-10.26-1.51q-7.71,2.28-8.51,10.43a26.89,26.89,0,0,0,1.27,10,22.75,22.75,0,0,0,4.21,8.24q5.07,6.24,12.8,3.95a11.8,11.8,0,0,0,7.55-6.47Q663.92,571.87,661.42,563.35ZM644.66,538a18.4,18.4,0,0,1,11.05,5.6l-2.39-8.1,14.26-4.22,15.69,53.38q3.21,10.89,1.18,17.49-3.5,11.35-21.29,16.63-10.75,3.18-18.79,1a16.24,16.24,0,0,1-11.24-10.42l16-4.72a6.93,6.93,0,0,0,3.1,3.12c2,.87,4.82.76,8.56-.35q7.93-2.34,9-8.45.75-3.93-1.62-12l-1.06-3.62a18.68,18.68,0,0,1-2.94,6.76c-2.25,3.11-5.72,5.35-10.38,6.73Q643,600,634.29,594.25t-12.53-18.71q-3.69-12.54,0-22.93t15.13-13.77A20.19,20.19,0,0,1,644.66,538Z"/><path class="cls-12" d="M698.59,546.52l22.79-6.75q-2.07-5.73-6.13-7.81a11.38,11.38,0,0,0-8.73-.7q-5.1,1.51-7,5.54A16.68,16.68,0,0,0,698.59,546.52ZM728,523.6A29.45,29.45,0,0,1,735.72,534a78.25,78.25,0,0,1,3.75,11l-38.39,11.36q2.79,8.37,8.79,10.3a12.94,12.94,0,0,0,7.93,0,11,11,0,0,0,6.6-4.76,13,13,0,0,0,1.59-4.68l15-4.43q.91,5.17-2.2,11.71Q734,574.77,721,578.6a29.56,29.56,0,0,1-20.92-1.32q-10.22-4.5-14.8-20.09-4.31-14.61.79-24.59T703,519.13a30.7,30.7,0,0,1,13.38-1.1A23,23,0,0,1,728,523.6Z"/><path class="cls-12" d="M921.29,458.55l15.6-4.62,4.52,15.39-15.59,4.61Zm11.37,38.66,15.6-4.61L952.78,508l-15.59,4.62Z"/><path class="cls-12" d="M992,480.37q.93-8.42,10.16-20.24,8-10.28,10-14.31a16,16,0,0,0,1.42-12.09,12.43,12.43,0,0,0-4.94-7.12q-3.56-2.37-8.44-.93-6.69,2-7.64,7.71-.54,3.3,1.06,9.67l-14.25,4.22q-2.46-9.66-1.1-16.45,2.58-12.94,17.55-17.37,11.83-3.51,20.77,1t12.12,15.35a24.66,24.66,0,0,1-.6,16.23q-2,5.25-7.84,12.7l-4.64,5.92q-4.35,5.55-5.87,7.91a17.39,17.39,0,0,0-2.22,5.09L1040.2,468l3.81,13L992.92,496.1A36.73,36.73,0,0,1,992,480.37Z"/><path class="cls-12" d="M1059.73,454.55a14.81,14.81,0,0,0,5.53,6.42c2.16,1.25,4.81,1.41,8,.47q5.44-1.6,7.18-6.3a16.52,16.52,0,0,0,0-10.53,17.52,17.52,0,0,0-5.52-8.88q-3.84-3.17-9.5-1.48a15.25,15.25,0,0,0-4.44,2,9.64,9.64,0,0,0-3.84,6.13l-13.36,3.28-6.91-42.9L1078,390.63l3.67,12.49-30.51,9,2.13,17.16a32,32,0,0,1,4.44-4.51,23.19,23.19,0,0,1,7.42-3.49,24.26,24.26,0,0,1,18,1.46q8.75,4.22,12.24,16.14a29.74,29.74,0,0,1-1.19,20.49q-4.23,10.13-17.46,14-10.65,3.15-19.18-.55t-12.4-14Z"/><path class="cls-12" d="M595.49,750.77l-22.38-76.09,15.7-4.65,8.53,29L627,690.27l-8.54-29,15.75-4.66,22.38,76.09-15.75,4.66-10-34-29.64,8.77,10,34Z"/><path class="cls-12" d="M671.29,691.64l22.79-6.75q-2.07-5.73-6.13-7.81a11.38,11.38,0,0,0-8.73-.7q-5.1,1.51-7,5.54A16.68,16.68,0,0,0,671.29,691.64Zm29.45-22.92a29.45,29.45,0,0,1,7.68,10.35,77.79,77.79,0,0,1,3.75,11l-38.39,11.36q2.81,8.37,8.79,10.3a13,13,0,0,0,7.93,0,11,11,0,0,0,6.6-4.76,12.76,12.76,0,0,0,1.59-4.68l15-4.43q.92,5.17-2.2,11.7-4.8,10.35-17.76,14.18a29.57,29.57,0,0,1-20.92-1.33q-10.21-4.49-14.8-20.08-4.31-14.61.79-24.59t16.88-13.47a30.55,30.55,0,0,1,13.38-1.1A23,23,0,0,1,700.74,668.72Z"/><path class="cls-12" d="M725.68,643.78l-14.87,4.4-4-13.58,14.88-4.4Zm-12.9,11.11,14.87-4.4,16.55,56.26-14.87,4.41Z"/><path class="cls-12" d="M786.38,663.41q-2.36-8-7-11.19a11.5,11.5,0,0,0-10.27-1.51q-7.71,2.29-8.5,10.44a26.81,26.81,0,0,0,1.26,10,22.82,22.82,0,0,0,4.21,8.24q5.08,6.24,12.8,4a11.84,11.84,0,0,0,7.55-6.48Q788.88,671.92,786.38,663.41ZM769.62,638a18.32,18.32,0,0,1,11,5.6l-2.38-8.11,14.25-4.22,15.7,53.38q3.19,10.89,1.17,17.5-3.48,11.36-21.29,16.62-10.75,3.19-18.79,1T758.1,709.32l15.95-4.72a6.87,6.87,0,0,0,3.1,3.12q3,1.32,8.57-.35,7.92-2.34,9-8.45.75-3.93-1.62-12l-1.06-3.61a18.94,18.94,0,0,1-2.93,6.76q-3.39,4.65-10.39,6.72-10.8,3.2-19.5-2.5t-12.53-18.72q-3.69-12.54,0-22.93t15.14-13.76A19.93,19.93,0,0,1,769.62,638Z"/><path class="cls-12" d="M855.3,619.11a15.24,15.24,0,0,1,4.73,5.63,83.6,83.6,0,0,1,3.71,10.72l9.72,33-15,4.43L848.42,638.7a15.77,15.77,0,0,0-3.7-6.87q-3.16-3.33-8.77-1.67c-3.88,1.15-6.43,3.32-7.68,6.51s-1.15,7.2.26,12l9,30.45-14.61,4.33-22.31-75.83,14.62-4.33,7.91,26.9a18.77,18.77,0,0,1,5.37-9,21.83,21.83,0,0,1,8.26-4.55,24.9,24.9,0,0,1,10-1A17.07,17.07,0,0,1,855.3,619.11Z"/><path class="cls-12" d="M868.07,620.88,865,610.4l7.82-2.32-4.62-15.69,14.51-4.29,4.62,15.69,9.11-2.7,3.08,10.49-9.11,2.69L899.15,644c.67,2.31,1.39,3.66,2.14,4s2.62.16,5.6-.73c.45-.13.92-.28,1.41-.44l1.44-.51,3.23,11-6.87,2.32q-10.29,3.44-15.26.59-3.21-1.8-4.76-7.07l-10.19-34.63Z"/><path class="cls-12" d="M999.28,572.51l15.59-4.62,4.52,15.39-15.59,4.61Zm11.37,38.66,15.59-4.61,4.52,15.38-15.59,4.61Z"/><path class="cls-12" d="M1059.73,557.25l-2.94-10a68,68,0,0,0,9.45-3.81,14.36,14.36,0,0,0,6-6.06,13.36,13.36,0,0,0,1.3-6.22,13.18,13.18,0,0,0-.31-3.16l12.19-3.61,22,74.85-15,4.45-15.18-51.62Z"/><path class="cls-12" d="M1152,575.06a10.77,10.77,0,0,0,7-5.39q2-3.88.33-9.41-1.68-5.73-5.46-7.84a12.36,12.36,0,0,0-15.7,4.65q-2,3.82-.34,9.56,1.62,5.52,5.37,7.72A10.78,10.78,0,0,0,1152,575.06Zm-23.52-25.37q-6.46-2-9.32-5.74a22.8,22.8,0,0,1-3.94-7.39,19.17,19.17,0,0,1,2-15.72q4.43-7.58,15.59-10.88t19,.64a19.13,19.13,0,0,1,10.21,12.1,22.79,22.79,0,0,1,.69,8.35c-.25,3.13-1.88,6.25-4.87,9.39a21.52,21.52,0,0,1,10.7,5.75,24.55,24.55,0,0,1,6.13,10.59,22.31,22.31,0,0,1-2.25,18.14q-5,8.7-17.52,12.4t-20.89-1a23.12,23.12,0,0,1-11.16-14.18,24,24,0,0,1-.5-12.25A19,19,0,0,1,1128.49,549.69Zm13.36-9.17a9.48,9.48,0,0,0,6.16-4.63,9.7,9.7,0,0,0,.49-7.38,10,10,0,0,0-4.49-6.22q-3.18-1.78-7.66-.45a9.06,9.06,0,0,0-6.64,12.23,9.1,9.1,0,0,0,12.14,6.45Z"/><path class="cls-12" d="M1210.87,557.63q6.54-1.93,6.56-9.37t-3.78-20.35q-4-13.53-7.92-19.43t-10.48-4c-4.36,1.29-6.6,4.3-6.73,9.06s1.13,11.63,3.78,20.65q3.79,12.91,7.92,19.12T1210.87,557.63Zm17.91-34.2q5.46,18.54,2.66,30.25t-17,15.93q-14.25,4.21-22.93-4.1t-14.14-26.85q-5.44-18.52-2.67-30.29t17-16q14.27-4.22,23,4.15T1228.78,523.43Z"/><path class="cls-12" d="M620.63,797.66l22.84,40.58,5.74,11.52-1.28-12.53-4.35-46.36,16.72-5,21.82,40.88L688,838.28l-1.12-12.37-2.81-47,16.1-4.76,1,82.4L686.08,861l-22.25-41.79-7-13.93,1.65,15.52L662.41,868l-14.72,4.35-43.88-69.72Z"/><path class="cls-12" d="M731.72,810.79l22.8-6.75q-2.07-5.7-6.14-7.82a11.42,11.42,0,0,0-8.73-.69c-3.39,1-5.72,2.84-6.95,5.54A16.76,16.76,0,0,0,731.72,810.79Zm29.46-22.9a29.43,29.43,0,0,1,7.68,10.33,77.18,77.18,0,0,1,3.74,11L734.22,820.6Q737,829,743,830.91a12.87,12.87,0,0,0,7.93,0,10.87,10.87,0,0,0,6.59-4.77,12.44,12.44,0,0,0,1.59-4.68l15-4.43q.9,5.19-2.21,11.71-4.78,10.34-17.75,14.2a29.49,29.49,0,0,1-20.93-1.36q-10.22-4.47-14.8-20.07-4.29-14.6.8-24.58t16.88-13.48a30.51,30.51,0,0,1,13.38-1.08A22.76,22.76,0,0,1,761.18,787.89Z"/><path class="cls-12" d="M786.11,762.93l-14.87,4.4-4-13.58,14.87-4.4Zm-12.89,11.12,14.87-4.4,16.55,56.26-14.88,4.4Z"/><path class="cls-12" d="M846.82,782.57c-1.58-5.35-3.89-9.06-7-11.18a11.44,11.44,0,0,0-10.27-1.51q-7.71,2.28-8.51,10.43a27,27,0,0,0,1.26,10,22.68,22.68,0,0,0,4.22,8.24c3.38,4.15,7.65,5.49,12.8,4a11.89,11.89,0,0,0,7.55-6.48C848.52,792.74,848.48,788.23,846.82,782.57Zm-16.76-25.41a18.5,18.5,0,0,1,11,5.59l-2.38-8.09L853,750.44l15.69,53.37q3.21,10.91,1.17,17.5-3.48,11.36-21.28,16.64-10.75,3.18-18.79.95c-5.36-1.47-9.11-5-11.24-10.43l16-4.72a6.84,6.84,0,0,0,3.1,3.11c2,.9,4.84.78,8.57-.33,5.29-1.56,8.3-4.39,9-8.46.49-2.63,0-6.59-1.62-12l-1.07-3.62a18.54,18.54,0,0,1-2.93,6.78q-3.39,4.63-10.38,6.71-10.82,3.19-19.51-2.5t-12.52-18.72q-3.69-12.56,0-22.93t15.14-13.75A20.12,20.12,0,0,1,830.06,757.16Z"/><path class="cls-12" d="M915.74,738.26a15.42,15.42,0,0,1,4.73,5.63,86.42,86.42,0,0,1,3.71,10.72l9.71,33-15,4.44-10.07-34.24a15.79,15.79,0,0,0-3.7-6.88q-3.15-3.3-8.76-1.65c-3.88,1.15-6.44,3.3-7.68,6.52s-1.16,7.19.26,12l9,30.45-14.62,4.33L861,726.79l14.61-4.33,7.92,26.91a18.82,18.82,0,0,1,5.36-9,21.86,21.86,0,0,1,8.26-4.53,24.42,24.42,0,0,1,10-1A17.18,17.18,0,0,1,915.74,738.26Z"/><path class="cls-12" d="M928.5,740l-3.08-10.48,7.82-2.32-4.61-15.7,14.51-4.29,4.61,15.7,9.11-2.7,3.08,10.48-9.1,2.7,8.75,29.75c.67,2.29,1.39,3.65,2.13,4s2.62.17,5.61-.72l1.4-.44,1.45-.52,3.23,11-6.87,2.33c-6.86,2.27-11.95,2.48-15.27.58-2.13-1.19-3.73-3.56-4.76-7.08l-10.18-34.63Z"/><path class="cls-12" d="M1001.15,709l15.59-4.61,4.53,15.39-15.59,4.61Zm11.37,38.67,15.59-4.61,4.53,15.39L1017.05,763Z"/><path class="cls-12" d="M1106.72,668.7A98.87,98.87,0,0,0,1101,683a99.63,99.63,0,0,0-5.42,38.83,74.19,74.19,0,0,0,2.34,17.28l-15.23,4.5q-5.25-20.31.86-45.77,4.11-15.86,8-22.8l-37.2,11-3.68-13.28,52.69-15.59Z"/><path class="cls-12" d="M1120.22,676.38l-3-10a65.58,65.58,0,0,0,9.46-3.8,14.28,14.28,0,0,0,6-6.06,13.37,13.37,0,0,0,1.31-6.21,12.69,12.69,0,0,0-.32-3.18l12.2-3.61,22,74.86-15,4.45-15.19-51.64Z"/><polygon class="cls-12" points="1188.77 695.49 1204.36 690.88 1208.88 706.26 1193.29 710.87 1188.77 695.49"/><path class="cls-12" d="M1227.49,679a14.84,14.84,0,0,0,5.52,6.4c2.15,1.24,4.81,1.42,8,.48q5.46-1.61,7.18-6.3a16.49,16.49,0,0,0,0-10.52,17.58,17.58,0,0,0-5.53-8.91c-2.55-2.1-5.72-2.58-9.49-1.47a14.94,14.94,0,0,0-4.43,2,9.59,9.59,0,0,0-3.85,6.14l-13.36,3.26-6.91-42.9,41.11-12.17,3.68,12.49-30.52,9,2.14,17.16a31.29,31.29,0,0,1,4.44-4.5,23,23,0,0,1,7.42-3.5,24.31,24.31,0,0,1,18,1.47q8.75,4.23,12.24,16.13a29.91,29.91,0,0,1-1.18,20.51q-4.25,10.13-17.47,14-10.65,3.15-19.18-.54t-12.39-14Z"/><path class="cls-12" d="M1259,609l14.41-4.27,12,41,12-26.57,18.16-5.37-13.28,27.32,30.52,28.46-17.7,5.24-20.5-20.09-4.21,8.16,5.21,17.7-14.41,4.27Z"/><path class="cls-12" d="M1368,628.31c-1.57-5.36-3.9-9.06-6.94-11.19a11.51,11.51,0,0,0-10.27-1.51q-7.71,2.28-8.53,10.43a26.86,26.86,0,0,0,1.28,10,23,23,0,0,0,4.2,8.24c3.4,4.15,7.66,5.5,12.8,4a11.82,11.82,0,0,0,7.55-6.48C1369.72,638.47,1369.7,634,1368,628.31Zm-16.74-25.42a18.5,18.5,0,0,1,11,5.59l-2.37-8.09,14.22-4.21,15.7,53.37c2.14,7.27,2.55,13.09,1.19,17.5-2.34,7.57-9.41,13.11-21.3,16.64-7.17,2.12-13.43,2.42-18.79.95a16.26,16.26,0,0,1-11.22-10.44l16-4.72a6.92,6.92,0,0,0,3.09,3.11c2,.9,4.82.79,8.58-.32,5.28-1.56,8.28-4.39,9-8.46.49-2.63,0-6.6-1.62-12l-1.07-3.62a18.29,18.29,0,0,1-2.93,6.78c-2.26,3.09-5.71,5.32-10.38,6.71q-10.8,3.19-19.5-2.51t-12.51-18.72q-3.69-12.56,0-22.92t15.14-13.76A20.38,20.38,0,0,1,1351.29,602.89Z"/><polygon class="cls-49" points="514.92 445.54 561.45 431.76 575.17 478.44 528.64 492.21 514.92 445.54"/></g></g></g></svg>