<svg xmlns="http://www.w3.org/2000/svg" viewBox="0 0 4800 2700"><defs><style>.cls-1{isolation:isolate;}.cls-2{fill:#abe2f5;}.cls-3{fill:#1c1c1c;}.cls-4{fill:#c8f9ef;}.cls-5{fill:#7fcef9;}.cls-6{fill:#aae1f4;}.cls-7{fill:#fffaf7;}.cls-8{fill:#1651da;}.cls-9{fill:#1f398e;}.cls-10{fill:#fff;}.cls-11{fill:#d7e9ff;}.cls-12{fill:#032747;}.cls-13{fill:#ecf3ff;}.cls-14{font-size:76.75px;}.cls-14,.cls-15,.cls-16,.cls-22,.cls-27,.cls-28{fill:#ebf2ff;}.cls-14,.cls-16,.cls-20,.cls-22,.cls-27,.cls-31{font-family:OpenSans-Bold, Open Sans;font-weight:700;}.cls-16{font-size:62.49px;}.cls-17{fill:#ffbe98;}.cls-18{fill:#f6a983;}.cls-19{fill:#1b42a7;}.cls-20{font-size:146.89px;}.cls-20,.cls-21,.cls-29,.cls-31,.cls-32{fill:#e8f6ff;}.cls-22{font-size:103.8px;}.cls-23{fill:#c1e1f5;}.cls-23,.cls-25{mix-blend-mode:multiply;}.cls-24{fill:#ffb294;}.cls-25{fill:#ffc8b3;}.cls-26{fill:#ea4546;}.cls-27,.cls-28{font-size:49.06px;}.cls-28,.cls-29,.cls-32{font-family:OpenSans-SemiBold, Open Sans;font-weight:600;}.cls-29{font-size:93.16px;}.cls-30{fill:#703e03;}.cls-31{font-size:133.49px;}.cls-32{font-size:119.6px;}</style></defs><g class="cls-1"><g id="Background"><rect class="cls-2" width="4800" height="2700"/></g><g id="Layer_4" data-name="Layer 4"><path class="cls-3" d="M4266.19,1762.46l405.7,234.23c21,12.11,18.34,33.26-5.88,47.25l-390.94,225.71c-24.22,14-60.86,15.5-81.83,3.39l-405.7-234.23c-21-12.11-18.35-33.27,5.87-47.25l390.95-225.71C4208.57,1751.87,4245.21,1750.35,4266.19,1762.46Z"/><path class="cls-4" d="M4707.69,1976c0-.15,0-.3,0-.45V1907l-42.1,32.16-397.67-229.59c-22-12.69-60.35-11.1-85.72,3.55l-389.71,225L3751.76,1907v69h.06c-.65,8.6,4.14,16.91,14.72,23l425,245.36c22,12.68,60.36,11.09,85.73-3.56l409.51-236.43c14.06-8.12,21.14-18.54,20.95-28.38h0Z"/><path class="cls-5" d="M4707.7,1907v69c.18,9.84-6.9,20.25-21,28.42L4290.94,2233l-7.2,4.14V1876.81h273.82l108,62.36Z"/><path class="cls-6" d="M4290.94,2129.23V2233l-7.2,4.14-6.5,3.74c-25.36,14.61-63.79,16.22-85.76,3.51l-14.9-8.63V2129.23Z"/><path class="cls-7" d="M4267.92,1640.08l425,245.35c22,12.69,19.22,34.85-6.15,49.49l-409.51,236.43c-25.37,14.65-63.75,16.24-85.73,3.56l-425-245.36c-22-12.68-19.22-34.84,6.15-49.49l409.51-236.43C4207.57,1629,4246,1627.39,4267.92,1640.08Z"/><path class="cls-8" d="M4264.8,1661.93,4655,1887.24c20.18,11.64,17.65,32-5.65,45.44l-376.05,217.11c-23.29,13.45-58.54,14.91-78.71,3.27l-390.24-225.31c-20.18-11.65-17.65-32,5.65-45.45l376-217.11C4209.38,1651.74,4244.62,1650.28,4264.8,1661.93Z"/><path class="cls-9" d="M4273.68,2149.59l-.35.18a80.14,80.14,0,0,1-15.64,6.79h-.06l-459.34-265.19a50.88,50.88,0,0,1,11.74-9.09l.29-.17Z"/><polygon class="cls-9" points="4317.4 2124.34 4303.36 2132.39 3840.06 1864.96 3854.09 1856.85 4317.4 2124.34"/><polygon class="cls-9" points="4361.11 2099.09 4347.14 2107.14 3883.83 1839.65 3897.81 1831.6 4361.11 2099.09"/><polygon class="cls-9" points="4404.89 2073.84 4390.86 2081.89 3927.55 1814.4 3941.59 1806.29 4404.89 2073.84"/><polygon class="cls-9" points="4448.67 2048.52 4434.63 2056.64 3971.33 1789.14 3985.36 1781.03 4448.67 2048.52"/><polygon class="cls-9" points="4492.45 2023.27 4478.41 2031.38 4015.11 1763.89 4029.14 1755.78 4492.45 2023.27"/><polygon class="cls-9" points="4536.22 1998.02 4522.19 2006.13 4058.88 1738.64 4072.92 1730.53 4536.22 1998.02"/><polygon class="cls-9" points="4580 1972.7 4565.96 1980.82 4102.66 1713.33 4116.69 1705.22 4580 1972.7"/><polygon class="cls-9" points="4623.77 1947.45 4609.74 1955.57 4146.43 1688.07 4160.47 1679.96 4623.77 1947.45"/><path class="cls-9" d="M4664,1920.19a41.9,41.9,0,0,1-10.7,10l-462.9-267.25a81.21,81.21,0,0,1,17.32-6.16Z"/><path class="cls-6" d="M4164.79,1995.11c-3.64-12-14-23.78-30.35-33.23-30.13-17.4-73.85-23.12-108.91-14.27L3956.76,1965a29.81,29.81,0,0,0-12.06,5.73l-.32-.8-4.87.16.06,10.3c0,.3,0,.58,0,.88v.1h0c.29,5.08,4,10.37,11.35,14.63l124.42,71.84c17.42,10.05,44.83,8.33,53.7-3.36l30.09-39.71a32.58,32.58,0,0,0,7-21.72l.07-10.39Z"/><path class="cls-7" d="M4075.36,2057.76l-124.42-71.84c-17.42-10.05-14.45-25.88,5.82-31l68.77-17.37c35.06-8.86,78.78-3.13,108.91,14.26h0c30.14,17.4,40.05,42.64,24.71,62.89l-30.09,39.7C4120.19,2066.1,4092.78,2067.81,4075.36,2057.76Z"/><path class="cls-10" d="M4072.12,2043.19l-101.87-58.81c-14.26-8.24-11.83-21.19,4.76-25.39l56.3-14.22c28.71-7.25,64.51-2.56,89.18,11.68h0c24.67,14.24,32.79,34.91,20.23,51.48l-24.64,32.51C4108.82,2050,4086.38,2051.42,4072.12,2043.19Z"/><path class="cls-6" d="M3975,1971.94l56.3-14.23c28.71-7.25,64.51-2.56,89.18,11.68,14,8.07,22.61,18.19,25.22,28.46,3.75-14.31-5.36-29.93-25.22-41.4-24.67-14.24-60.47-18.93-89.18-11.68L3975,1959c-13,3.28-17.25,11.93-11.67,19.48C3965.64,1975.67,3969.54,1973.32,3975,1971.94Z"/><path class="cls-9" d="M61.62,1561.52l.22-76.1c-.06,19.95,13.11,39.93,39.46,55.14l-.22,76.1C74.73,1601.44,61.57,1581.47,61.62,1561.52Z"/><path class="cls-3" d="M4329.67,1323.45l-2175.08,1264-56.34,32.74-89.55,52c-52.74,30.64-138.5,30.64-191.57,0L78.3,1668.34c-53-30.63-53.34-80.32-.6-110.95l2321-1348.81c52.73-30.65,138.5-30.65,191.56,0L4329.07,1212.48C4382.13,1243.12,4382.41,1292.8,4329.67,1323.45Z"/><path class="cls-11" d="M2006.76,2531.5l-.22,76.1a146,146,0,0,1-24.15,11.1,192.92,192.92,0,0,1-34.91,8.84,228.79,228.79,0,0,1-75.31-.79q-9.06-1.62-17.73-4a157.12,157.12,0,0,1-37-15.13l.2-76.1a157.7,157.7,0,0,0,36.78,15.07c5.77,1.59,11.69,3,17.73,4.07a229.86,229.86,0,0,0,75.31.83,192.83,192.83,0,0,0,34.91-8.77A146.26,146.26,0,0,0,2006.76,2531.5Z"/><path class="cls-9" d="M1982.39,2542.7v76a192.92,192.92,0,0,1-34.91,8.84,228.79,228.79,0,0,1-75.31-.79v-76.11a229.86,229.86,0,0,0,75.31.83A192.83,192.83,0,0,0,1982.39,2542.7Z"/><path class="cls-9" d="M4336.62,1145.73l-.22,76.09c-.06,19.7-13,39.36-38.86,54.39l.22-76.1C4323.62,1185.09,4336.56,1165.42,4336.62,1145.73Z"/><polygon class="cls-11" points="4297.76 1200.12 4297.54 1276.21 2006.54 2607.6 2006.76 2531.5 4297.76 1200.12"/><polygon class="cls-9" points="1817.67 2531.51 1817.46 2607.61 101.08 1616.66 101.3 1540.56 1817.67 2531.51"/><path class="cls-8" d="M4297.16,1090.59c52.37,30.24,52.65,79.28.6,109.52l-2291,1331.39c-52,30.25-136.71,30.25-189.09,0l-1716.37-991c-52.38-30.24-52.65-79.27-.6-109.52L2391.7,99.65c52.05-30.25,136.71-30.25,189.08,0Z"/><path class="cls-11" d="M2486.13,84.74c34.36,0,66.6,7.69,90.76,21.64l1716.38,991c22.91,13.23,35.54,30.35,35.57,48.22s-12.4,34.71-35,47.84l-2291,1331.38c-24,13.95-56.16,21.64-90.52,21.64s-66.6-7.69-90.77-21.64L105.19,1533.82c-22.91-13.23-35.55-30.35-35.57-48.21s12.4-34.72,35-47.85l2291-1331.38c24-13.95,56.15-21.64,90.52-21.64Zm0-7.78c-34.22,0-68.4,7.57-94.43,22.69L100.7,1431c-52,30.24-51.78,79.28.6,109.52l1716.37,991c26.19,15.12,60.44,22.68,94.66,22.68s68.4-7.57,94.43-22.69l2291-1331.39c52.05-30.24,51.77-79.28-.61-109.52L2580.78,99.64C2554.6,84.52,2520.35,77,2486.13,77Z"/><path class="cls-9" d="M149,1459.15,2435.23,139.21c20.82-12,52.31-13.32,70.34-2.91l1723.26,994.92c18,10.41,15.77,28.59-5.05,40.61L1937.59,2491.77c-20.82,12-52.31,13.32-70.34,2.91L144,1499.76C126,1489.35,128.22,1471.16,149,1459.15Z"/><path class="cls-12" d="M2475,129.27V133c11.21,0,21.4,2.32,28.69,6.53L4227,1134.44c6.65,3.84,10.31,9,10.31,14.42,0,6.91-5.6,14.11-15.36,19.75L1935.73,2488.54c-10.4,6-24.22,9.45-37.93,9.45-11.21,0-21.4-2.32-28.69-6.53L145.85,1496.53c-6.65-3.84-10.31-9-10.31-14.41,0-6.92,5.6-14.12,15.36-19.75L2437.09,142.43c10.4-6,24.22-9.44,37.93-9.44v-3.72m0,0c-13.82,0-28.4,3.37-39.79,9.94L149,1459.15c-20.82,12-23.08,30.2-5,40.61l1723.26,994.92c8.17,4.72,19.1,7,30.55,7,13.82,0,28.4-3.37,39.79-9.94L4223.78,1171.83c20.82-12,23.08-30.2,5.05-40.61L2505.57,136.3c-8.17-4.72-19.1-7-30.55-7Z"/><path class="cls-13" d="M928.76,2074.69,855,2032.08c-5.58-3.22-10.11-11.86-10.11-19.3h0c0-7.44,4.53-10.86,10.11-7.64l73.8,42.61c5.57,3.22,10.1,11.87,10.1,19.3h0C938.86,2074.49,934.33,2077.91,928.76,2074.69Z"/><polygon class="cls-3" points="2130.11 2450.12 2130 2450.19 2130 2450.06 2130.11 2450.12"/><path class="cls-8" d="M2526.2,1489.76l69.48,40.11L1508.43,2157.59,1439,2117.48c-52.83-30.5-52.52-80.13.7-110.86l894.55-516.46C2387.41,1459.43,2473.37,1459.25,2526.2,1489.76Z"/><path class="cls-8" d="M2430.84,1473.91c34.88,0,67.52,7.75,91.9,21.83l356.44,205.79c23.19,13.39,36,30.82,36,49.07,0,18.48-13,36.17-36.65,49.81l-894.55,516.47c-24.83,14.34-57.93,22.23-93.19,22.23-34.88,0-67.52-7.75-91.91-21.83l-356.43-205.79c-23.19-13.39-36-30.81-36-49.07,0-18.47,13-36.16,36.66-49.81l894.55-516.47c24.84-14.34,57.93-22.23,93.19-22.23m0-6.91c-34.91,0-69.91,7.72-96.64,23.16l-894.55,516.46c-53.22,30.73-53.53,80.36-.7,110.86l356.44,205.79c26.29,15.18,60.78,22.76,95.36,22.76,34.91,0,69.91-7.73,96.64-23.16l894.55-516.47c53.22-30.72,53.52-80.36.69-110.86L2526.2,1489.76c-26.29-15.18-60.78-22.76-95.36-22.76Z"/><text class="cls-14" transform="matrix(0.88, -0.51, 0.87, 0.5, 1524.49, 2112.85)">Patient Data :</text><ellipse class="cls-15" cx="2409.63" cy="1511.72" rx="20.01" ry="11.55" transform="translate(-9.46 15.19) rotate(-0.36)"/><ellipse class="cls-15" cx="2370.18" cy="1534.49" rx="20.01" ry="11.55" transform="translate(-9.61 14.94) rotate(-0.36)"/><ellipse class="cls-15" cx="2330.74" cy="1557.26" rx="20.01" ry="11.55" transform="translate(-9.75 14.69) rotate(-0.36)"/><path class="cls-8" d="M3772.85,949.32,3829.43,982l-943.66,546.85-56.57-32.66c-43-24.84-42.77-65.25.57-90.27l786.74-456.26C3659.84,924.63,3729.84,924.48,3772.85,949.32Z"/><path class="cls-8" d="M3694.41,934.28c28.39,0,55,6.31,74.82,17.77l290.23,167.57c18.89,10.9,29.29,25.09,29.29,40,0,15-10.6,29.44-29.87,40.57L3273,1658.53c-20.22,11.68-47.17,18.1-75.88,18.1-28.4,0-55-6.31-74.84-17.77L2832,1491.29c-18.88-10.9-29.28-25.09-29.28-40,0-15,10.6-29.44,29.87-40.57l785.92-458.38c20.22-11.67,47.17-18.1,75.88-18.1h0m0-5.63c-28.42,0-56.93,6.29-78.69,18.86L2829.77,1405.9c-43.34,25-43.59,65.43-.57,90.27l290.23,167.56c21.41,12.36,49.49,18.53,77.65,18.53,28.43,0,56.93-6.29,78.69-18.86L4061.71,1205c43.33-25,43.58-65.43.57-90.27L3772.05,947.18c-21.41-12.36-49.49-18.53-77.65-18.53Z"/><text class="cls-16" transform="matrix(0.88, -0.51, 0.87, 0.5, 2898.85, 1492.4)">Healthy BMI Range :</text><ellipse class="cls-15" cx="3684.4" cy="961.55" rx="16.29" ry="9.41" transform="translate(-5.98 23.2) rotate(-0.36)"/><ellipse class="cls-15" cx="3652.29" cy="980.1" rx="16.29" ry="9.41" transform="translate(-6.09 23) rotate(-0.36)"/><ellipse class="cls-15" cx="3620.17" cy="998.64" rx="16.29" ry="9.41" transform="translate(-6.21 22.8) rotate(-0.36)"/><path class="cls-8" d="M2744.72,1020.38l-306,176.67c-25.34,14.63-69.59,12.8-98.85-4.09h0c-29.25-16.9-32.43-42.45-7.09-57.07l306-176.68c25.33-14.63,69.59-12.79,98.84,4.1h0C2766.88,980.2,2770.05,1005.75,2744.72,1020.38Z"/><path class="cls-8" d="M3235.89,737.58l-306,176.68c-25.33,14.62-69.59,12.79-98.84-4.1h0c-29.25-16.89-32.43-42.44-7.09-57.07l306-176.67c25.33-14.63,69.59-12.8,98.84,4.09h0C3258.05,697.4,3261.23,723,3235.89,737.58Z"/><path class="cls-17" d="M4370.22,1631.26c29.85,90.4,33.71,238.8,33.71,238.8l9.75,23.46,41.71,4.41,17.75-17.71s3.83,5.32,6.21-25.73c-11.84-126.9,23.07-171.25,7.7-257C4476.39,1559.59,4378.22,1617.72,4370.22,1631.26Z"/><path class="cls-18" d="M4130.94,1527.67c23.22,99.23,16.55,201.71,16.55,201.71l2.48,24.24,52,5.32,36.5-15.83s-8.41-19,.46-34.14c-7.11-94.07,14.65-130,11.1-187.26C4248.66,1494.5,4144.11,1499,4130.94,1527.67Z"/><path class="cls-3" d="M4238.89,1709c-43.45,66.54-91.4,20.41-91.4,20.41s-59.88,48.8-102.92,64.76c-27.19,10.07-32.81,57.69-14.63,71.43,11.78,8.87,51,4.27,82.09-10.8s61.21-44.67,61.21-44.67,50.13,1.35,69.23-16.84C4254.85,1781.42,4250.73,1715.47,4238.89,1709Z"/><path class="cls-3" d="M4479.35,1854.49s-28.39,53.51-75.42,15.57c-11,36.17-44.37,92.23-61.66,103.74s-17.29,44.81-9.75,52.81c15.07,16,71.26,19.5,95.37-6.21,27.06-28.85,39.93-73.18,39.93-73.18s16.72-13.73,22.52-28.8S4479.35,1854.49,4479.35,1854.49Z"/><path class="cls-18" d="M4130.94,1527.67s-11.47-37.28-9.26-77,4.41-86,4.41-86l82.69,11,47.41,30.87-6.2,115.11Z"/><polygon class="cls-17" points="4370.22 1631.26 4348.8 1532.29 4278.24 1377.93 4408.33 1331.63 4452.43 1498.11 4487.05 1597.46 4370.22 1631.26"/><path class="cls-19" d="M4061.73,1044.39c-26,195.23,29,193.95,46.73,358.1,9.77,52.33,130.43,71.86,156.1,10.72-20.35-140.27-6.13-215.3-6.13-215.3S4071.8,1027.55,4061.73,1044.39Z"/><path class="cls-8" d="M4373.53,1085.33c13.25,20.47,29.19,64.73,39,117.77,6,32.3,7.37,72,13.42,104.27,16.05,85.6,24.26,136.72,24.26,136.72-23.07,68.55-140.2,74.44-160.28,26-18.95-85.18-89.78-222.16-89.78-222.16s-123-86.39-138.44-203.5C4063.89,1024,4344.58,1063.55,4373.53,1085.33Z"/><text class="cls-20" transform="matrix(0.89, -0.51, 0.87, 0.5, 1748.45, 2202.33)">Age<tspan x="0" y="176.26">Height</tspan></text><text class="cls-20" transform="matrix(0.89, -0.51, 0.87, 0.5, 2460.96, 1780.94)">45<tspan x="0" y="176.26">6’1”</tspan></text><g class="cls-1"><path class="cls-11" d="M2251.27,1232.29l.54,189.8c.07,22.13-14.55,44.3-43.8,61.19l-.54-189.79C2236.73,1276.6,2251.34,1254.43,2251.27,1232.29Z"/><path class="cls-8" d="M327.74,1502.79,327.2,1313c.07,21.85,14.43,43.67,43.12,60.34l.53,189.8C342.16,1546.46,327.8,1524.64,327.74,1502.79Z"/><polygon class="cls-8" points="1112.39 1804.59 1112.93 1994.38 370.86 1563.13 370.32 1373.34 1112.39 1804.59"/><polygon class="cls-11" points="2208.01 1483.29 2197.46 1489.38 2093.55 1549.37 1322.77 1994.39 1322.23 1804.59 2093.55 1359.26 2197.46 1299.26 2207.47 1293.48 2208.01 1483.29"/><path class="cls-8" d="M1322.76,1994.38c-18.27,10.55-40.09,17.79-63.22,21.7-42.07,7.14-88.46,3.27-125.68-11.59a157.56,157.56,0,0,1-20.93-10.11l-.54-189.79a160.62,160.62,0,0,0,21.47,10.33c37.28,14.73,83.67,18.5,125.68,11.28,22.92-3.93,44.55-11.14,62.68-21.61Z"/><path class="cls-8" d="M1256.25,740.7c58.13-33.56,152.08-33.56,209.83,0L2208.16,1172c57.76,33.56,57.44,88-.69,121.54l-885.25,511.1c-58.13,33.56-152.07,33.56-209.83,0L370.32,1373.34c-57.75-33.56-57.45-88,.68-121.54Z"/></g><path class="cls-11" d="M1259.54,1826.2v189.88c-42.07,7.14-88.46,3.27-125.68-11.59V1814.92C1171.14,1829.65,1217.53,1833.42,1259.54,1826.2Z"/><path class="cls-21" d="M1835.35,1108.78l-799.41,461.54c-37.69,21.76-103.52,19-147.05-6.1L490.68,1334.31c-43.52-25.12-48.24-63.13-10.55-84.9l799.41-461.54c37.69-21.76,103.53-19,147,6.1l398.21,229.91C1868.32,1049,1873.05,1087,1835.35,1108.78Z"/><text class="cls-22" transform="matrix(0.87, -0.5, 0.87, 0.5, 1118.96, 1698.42)">Online<tspan x="0" y="124.56">Appointment</tspan></text><path class="cls-21" d="M1168,305.82s97-19.85,156.56,77.18,116.86,348.39,116.86,348.39l72.77,209.48-103.64,35.28L1267.27,744.62Z"/><path class="cls-21" d="M1317.21,1228.86q-5.89,3.42-11.86,6.75c-36.85,20.61-152.67,68.16-166.35,72.66q-27.8,9.15-56.09,16.6a925.13,925.13,0,0,1-134.38,25.18c-24.26,2.67-48.35,4.29-72.14,4.78q-3.33.08-6.65.11-16.53.19-32.83-.34l24.83-334.55.86-11.51-33-258.18-2.33-18.13L801.35,530.84c49-63.52,116.95-123.34,187.42-178.22q9.09-7.08,18.24-14.06l5.33-1.2,4-.88,4.55-1,2.83-.56.4-.08.12,0c3-.59,5.89-1.14,8.79-1.66q5.92-1.06,11.71-2c10.59-1.64,20.78-2.88,30.55-3.78a442.57,442.57,0,0,1,73.43-.81c1.57.11,3.1.24,4.61.36l5.39.5c23.49,2.38,39.88,6.24,47.71,8.39,3.45.94,5.25,1.55,5.25,1.55s5.92,3,14.5,12.89c18.59,21.35,49.66,74.82,60.55,199.47q1.62,18.29,2.6,38.67c.49,10.26,1.39,30.36,2.61,58.06,3.14,70.6,8.34,190.46,14,321.75.74,17.32,1.5,34.84,2.26,52.46q.39,8.92.77,17.86.93,21.38,1.85,42.84c.1,2.21.19,4.4.29,6.61,0,.87.07,1.73.11,2.6C1313.27,1137.26,1315.28,1183.85,1317.21,1228.86Z"/><path class="cls-23" d="M1300.87,1069.15a19.46,19.46,0,0,1-6.23,6.44,31.24,31.24,0,0,1-2.86,1.69,51.73,51.73,0,0,1-15.4,4.66c-.54.1-1.09.18-1.64.25s-1,.14-1.46.19a108.21,108.21,0,0,1-12,.75c-21,.23-46.2-4.69-66.24-13.08l-70.12,3.81-86.94,4.72-23,1.25-73.63,4c-5.27,7.36-10.39,17.06-15.35,28.73-10.93,25.65-21.09,60.83-30.37,101.56-7.29,32-14,67.39-20.14,104.29q-3,18.06-5.8,36.54-16.53.19-32.83-.34l24.83-334.55.86-11.51-33-258.18,26.26-31,63.12-74.5.85-1c4.47,14.2,8.76,30,12.83,46.3,19.73,79.54,33.77,173.53,33.77,173.53s142.37,65.14,196.22,86.91h0a110.53,110.53,0,0,1,12,5.9c5.15,2.89,10.74,6.39,16.59,10.35,1.87,1.26,3.75,2.58,5.67,3.93,1,.71,2,1.43,3,2.17,30,21.65,64.7,52.93,85.46,76.21.27.29.52.58.77.87,2.29,2.57,4.4,5,6.28,7.39.43.52.84,1,1.22,1.53A94.06,94.06,0,0,1,1300.87,1069.15Z"/><path class="cls-21" d="M801.79,949.56c6,23.91,13.1,45.77,37.25,60.41,26.68,23.15,197.08,33.65,295.47,36.84,33.58,1.24,33.65,6.55,41.13,4.63,20.73-3.82,38.73-84,9.65-91.34l-243.88-82c-9.36-81-7.44-130.5-24.65-248.57-11.19-54-95.9-123.14-115.4-98.7C745.79,600.47,766.77,810.15,801.79,949.56Z"/><path class="cls-8" d="M1109,486.29l-141.45-4.85,202.22,371.62c35.83-129.34,72.63-236.78,25.66-417.56Z"/><path class="cls-2" d="M1046.5,318l-78.82,58.6c-42.29,116.22,40.52,143.1,101.11,210.59l48.49-101.94,86.79,35.55-20.78-158.05Z"/><path class="cls-10" d="M998,354.09c-58.07,41.45-30.47,127.35,33,207.24,57.2,72,147.62,231.37,154.28,346.69-55.46-114.56-156.15-257.87-212.45-299.83L991,567.36l-38.63,7.34C916.91,523,901.16,469.59,907.7,419.9Z"/><path class="cls-10" d="M1218.61,444.72l20.62-18.91L1175.08,343l-53.7-1.76c83.35,73.27,73.77,361.27,47.37,518l5.63,15.2c54.47-102.79,73.41-227.91,74.82-413Z"/><path class="cls-24" d="M1117.32,485.31a80.07,80.07,0,0,1-31.56,2.92C1024.64,481,980.46,402.48,988,358.3c7.24-53,11.4-81.75,11.4-81.75L1147.49,313s1.08,9.08,1.85,22.93c.31,3.24.46,6.78.62,10.63C1153.19,421.11,1136.41,479.61,1117.32,485.31Z"/><path class="cls-25" d="M1117.32,485.31a80.07,80.07,0,0,1-31.56,2.92c-53.42-28.79-65.12-155.33-65.12-155.33l128.7,3.07c.31,3.24.46,6.78.62,10.63C1153.19,421.11,1136.41,479.61,1117.32,485.31Z"/><path class="cls-24" d="M1008.52,303.46s25.37,61,57.85,84.17,79.73,30.07,97.08,28.37,30.68-5.23,39.91-20-2-136.48-2-136.48c-7.32-46.58-10.2-60.52-19.62-85.63-13.88-37-54.24-117.58-163.35-85.63-52.64,15.4-80,59.57-79.93,107.92C938.54,234.6,978.69,297,978.69,297Z"/><path d="M978.59,305l57.13,20.31-.75-32.24c-2.48-15.09-1.85-39.49,13-43.09,114.16-27.71,128.81-50.44,136.8-67.77,25.86-80.12-82.49-110.66-150.35-98.15C952,99.24,926.82,159.84,934,209,940.61,253.57,978.59,305,978.59,305Z"/><path d="M1018.71,307.3s6.77,45.73,23.83,82.13c16.54,35.3,91.51,77.3,157,34.77,65.17-42.31,5.73-111.9,5.73-111.9s-8.13-10.24-33,5c-39.09,24-29.22,54.95-64.84,58.42s-63.82-25-72.46-80.24Z"/><path class="cls-24" d="M962.93,277.71c-7.47,13.78,10,33.64,21.61,47.18,13.46,15.62,33,14.33,35.43,8.74,2.78-6.49,0-22.53-2.41-29.17C1005.17,270.06,972,261,962.93,277.71Z"/><polygon class="cls-9" points="1412.42 882.3 1248.39 1100.26 1255.01 1110.35 1519.79 1005.16 1690.51 797.1 1683.9 787.01 1412.42 882.3"/><polygon class="cls-3" points="1419.03 892.39 1255.01 1110.35 1526.41 1015.25 1690.51 797.1 1419.03 892.39"/><path class="cls-24" d="M1426.53,1016.05l-100,5.25-16-3.6,12.23-16.25,17.69-23.51-46.61-13.07c-25.78,2.58-50.27,6.13-72.8,11.21l-22.94-10.21c-20.79-4.5-41.6,63.88-20.83,70.53l49.87,18.92,60.86,20.49c22.15,9.21,34.76,4.36,60.89,6.84l29.28-9.84,21.48-16.19,21.55-16.68,9.4-4.7C1444.16,1032.66,1445.91,1018.42,1426.53,1016.05Z"/><g class="cls-1"><path class="cls-21" d="M2129.62,1148.74l-.26,94.32c-.07,23.58-15.57,47.13-46.54,65.13-62.33,36.22-163.72,36.22-226.46,0-31.57-18.23-47.34-42.16-47.27-66l.27-94.31c-.07,23.89,15.7,47.82,47.27,66,62.74,36.22,164.13,36.22,226.46,0C2114.06,1195.88,2129.56,1172.33,2129.62,1148.74Z"/><ellipse class="cls-26" cx="1969.49" cy="1148.29" rx="92.75" ry="160.13" transform="translate(815.63 3114.51) rotate(-89.84)"/></g><polygon class="cls-21" points="1925.68 1205.46 1865.59 1170.77 2016.91 1083.4 2076.99 1118.1 1925.68 1205.46"/><polygon class="cls-21" points="2076.67 1170.32 2016.14 1205.27 1865.92 1118.54 1926.45 1083.59 2076.67 1170.32"/><path class="cls-8" d="M2666.8,339.13c25.62,0,49.55,5.67,67.38,16L3586.42,848c16.43,9.49,25.49,21.66,25.49,34.25,0,12.76-9.24,25.12-26,34.81l-805.56,465.09c-18.17,10.49-42.44,16.26-68.35,16.26-25.62,0-49.55-5.66-67.37-16L1792.37,889.54c-16.44-9.49-25.49-21.65-25.49-34.25,0-12.76,9.23-25.12,26-34.81l805.56-465.09c18.17-10.49,42.44-16.26,68.35-16.26h0m0-8.07c-26.14,0-52.35,5.79-72.37,17.35L1788.86,813.5c-39.85,23-40.09,60.18-.52,83l852.23,492.93c19.69,11.37,45.51,17,71.41,17,26.15,0,52.36-5.78,72.38-17.34l805.56-465.09c39.85-23,40.09-60.18.53-83L2738.21,348.11c-19.69-11.37-45.52-17.05-71.42-17.05Z"/><path class="cls-8" d="M2738.21,348.11l84.55,48.82L1872.89,945.34l-84.55-48.82c-39.57-22.84-39.33-60,.52-83l805.56-465.09C2634.27,325.4,2698.65,325.27,2738.21,348.11Z"/><text class="cls-27" transform="matrix(0.89, -0.51, 0.87, 0.5, 1875.49, 912.67)">Ideal Weight :</text><ellipse class="cls-15" cx="2619.44" cy="390.92" rx="14.17" ry="8.18" transform="translate(-2.41 16.49) rotate(-0.36)"/><ellipse class="cls-15" cx="2649.07" cy="373.81" rx="14.17" ry="8.18" transform="translate(-2.3 16.67) rotate(-0.36)"/><ellipse class="cls-15" cx="2678.69" cy="356.71" rx="14.17" ry="8.18" transform="translate(-2.19 16.86) rotate(-0.36)"/><text class="cls-28" transform="matrix(0.89, -0.51, 0.87, 0.5, 2092.44, 967.86)">Formula</text><text class="cls-28" transform="matrix(0.89, -0.51, 0.87, 0.5, 2562.11, 697.63)">Ideal Weight</text><text class="cls-29" transform="matrix(0.89, -0.51, 0.87, 0.5, 2234.29, 1062.77)">Robinson<tspan x="0" y="111.79">Miller</tspan><tspan x="0" y="223.58">Devine</tspan><tspan x="0" y="335.37">Hamwi</tspan><tspan x="0" y="447.16">BMI</tspan></text><text class="cls-29" transform="matrix(0.89, -0.51, 0.87, 0.5, 2690.25, 797.46)">169.1 lbs<tspan x="0" y="111.79">164.3 lbs</tspan><tspan x="0" y="223.58">176.1 lbs</tspan><tspan x="0" y="335.37">183.2 lbs</tspan><tspan x="0" y="447.16">140.2 -</tspan><tspan x="0" y="558.94">189.5 lbs</tspan></text><path class="cls-18" d="M4113.29,797.62l-28,48.62s1.26,54.86-13.72,92.22-45,125.25-45,125.25l-49.25-11.09,37.09-225a64.32,64.32,0,0,1,5.14-16.67l32.33-69.6Z"/><path class="cls-18" d="M4026.6,1063.71l4.32,61.41a51.29,51.29,0,0,1-4.66,25.21l-.37.8a10.66,10.66,0,0,1-12.34,5.83l-5.62-1.46-3.91,10.19a13.38,13.38,0,0,1-15.91,8.13l-28.58-7.59a13.37,13.37,0,0,1-9.71-10.49l-5.36-29a18.22,18.22,0,0,1,1.61-11.46l31.28-62.69Z"/><path class="cls-8" d="M4159.7,544c93.8,6,16.53,158.82,16.53,158.82s-19.71,50.72-41.63,117.93c-34.27,36.82-116.8-11.07-118.24-33.57,26-72.92,41.62-128.89,41.62-128.89S4070.13,538.27,4159.7,544Z"/><path class="cls-18" d="M4313,515c-8.6,23.31,14.6,60.58,14.6,60.58v32.24l-63,50.43-51.3,3.41-39.82-9.48-18.92-41.07,34.9-81.37,62.13-24.22S4301.62,509.15,4313,515Z"/><path class="cls-11" d="M4061.75,1044.39c14.34,20.44,88.13,94.31,201.08,94.47,64.78.16,110.69-53.5,110.69-53.5s-20.92-48.25-9.24-104.65c8.61-41.83,43.47-119.93,43.47-119.93l13.86-200.3s-83.34-66.82-94-87.18c-2.34,40.57-84.67,103.48-130.42,66.5-13.24-10.73-14.72-34.23-13.55-52.32a180.3,180.3,0,0,1,3.13-24h-24s-41.36,39.48-72.07,83.89c-.08.16-.24.31-.31.47-17.16,24.75-30.87,51-32.28,72.69a1.32,1.32,0,0,0-.08.55c-1.41,24.91,1.26,65.57,4,112.25C4065.83,900.73,4069.82,980.78,4061.75,1044.39Z"/><path class="cls-17" d="M4169.66,377C4141,395.52,4128,449.37,4128,456.43c-.06,9.46,10.67,16.57,10.67,16.57s-3,2.94-5.33,10.06c-5.9,18.34,10.06,107.66,10.06,107.66s18.14,19.16,29.56,20.12c71,5.91,115.94-75.12,115.94-75.12s22.76-5.49,29-34.32c3.81-14.18,13.6-39.63,13.6-39.63l-13.6-46.71-36.09-52.67h-63.89S4175.25,374.44,4169.66,377Z"/><path class="cls-30" d="M4317.41,505.38c-7.57,0,14.15-36.92-7.13-36.92s-21.7,44.48-39.44,39.15c-6.87-2.05-16.42-41.27-12.41-61.21s37-36.63,19.49-54.14c-19.8-19.81-56.91,26.8-97.29,11.54-37.55-14.19,2.81-53.68,18.32-61.67s78.08-37.7,125.44,26.78S4328.05,505.38,4317.41,505.38Z"/><path class="cls-17" d="M4392.09,856.89,4418.45,924s-12,69.49,0,119.81S4452,1211.51,4452,1211.51l64.7-4.79-4.61-293a82.75,82.75,0,0,0-3.39-22.16L4480.75,797Z"/><path class="cls-17" d="M4452,1211.51l-17.09,77.24a65.94,65.94,0,0,0,1.15,32.92l.33,1.1a13.7,13.7,0,0,0,14.59,9.74l7.41-.79,3.05,13.68a17.17,17.17,0,0,0,18.68,13.35l37.76-4.25A17.19,17.19,0,0,0,4532.2,1343l12.29-35.82a23.39,23.39,0,0,0,.12-14.88l-27.92-85.59Z"/><path class="cls-8" d="M4382.63,665.53c82.9-44.36,106.47,129.54,106.47,129.54s16,55.9,37.26,123.33c-25.73,66.84-115.35,39.93-125.09,36.39C4380,880.37,4351.58,796,4351.58,796S4319.63,699.27,4382.63,665.53Z"/><path class="cls-9" d="M62.33,1561.29s-2,29.56,40.09,56l.37-74L74.13,1525Z"/><text class="cls-31" transform="matrix(0.89, -0.51, 0.87, 0.5, 2016.8, 565.18)">Calculate</text><text class="cls-32" transform="matrix(0.89, -0.51, 0.87, 0.5, 3133.59, 1600.62)">140.2 - 189.5 lbs</text></g></g></svg>