<?xml version="1.0" encoding="UTF-8" standalone="no"?><!DOCTYPE svg PUBLIC "-//W3C//DTD SVG 1.1//EN" "http://www.w3.org/Graphics/SVG/1.1/DTD/svg11.dtd"><svg width="4000px" height="2500px" version="1.1" xmlns="http://www.w3.org/2000/svg" xmlns:xlink="http://www.w3.org/1999/xlink" xml:space="preserve" xmlns:serif="http://www.serif.com/" style="fill-rule:evenodd;clip-rule:evenodd;stroke-linejoin:round;stroke-miterlimit:2;"><g transform="matrix(2.2689,0,0,2.2689,-4311.51,-37.6381)"><g id="c99"><g id="c27"><g transform="matrix(0.441052,0,0,0.441052,1901,16.5249)"><rect x="111.817" y="218.725" width="3805.79" height="2107.56" style="fill:rgb(174,211,240);"/></g><path d="M2148.13,1042.54L3176.6,1042.54C3122.65,1015.88 3069.99,986.361 3018.05,952.34C2930.07,894.719 2851.58,825.723 2742.95,808.828C2433.91,760.762 2293.24,904.519 2148.13,1042.54ZM3628.87,310.991L3628.87,112.994L2602.92,112.994C2711.6,180.707 2855.35,222.975 2950.75,254.792C3061.49,291.722 3175.77,300.515 3291.86,301.053C3400.51,301.557 3522.84,293.809 3628.87,310.991Z" style="fill:rgb(195,220,243);"/><g transform="matrix(0.441052,0,0,0.441052,1901,16.5249)"><rect x="111.817" y="218.725" width="3805.79" height="2107.56" style="fill:none;"/><clipPath id="_clip1"><rect x="111.817" y="218.725" width="3805.79" height="2107.56"/></clipPath><g clip-path="url(#_clip1)"><g transform="matrix(2.66379,-0.22427,0.134803,1.60114,-6413.58,544.77)"><g transform="matrix(0.373818,0,0,0.621918,2381.72,-16.9028)"><path d="M19.592,1769.11L4069.78,837.903C4074.02,836.929 4076.66,832.7 4075.69,828.464C4074.72,824.228 4070.49,821.58 4066.25,822.554L16.063,1753.76C11.827,1754.73 9.179,1758.96 10.153,1763.2C11.127,1767.43 15.356,1770.08 19.592,1769.11Z" style="fill:rgb(218,235,248);"/></g><g transform="matrix(0.937104,-0.352701,0.727356,0.697814,234.011,1481.36)"><rect x="1770.7" y="551.996" width="1785.02" height="13.393" style="fill:white;fill-opacity:0.45;"/></g><g transform="matrix(0.937104,-0.352701,0.727356,0.697814,324.392,1568.07)"><rect x="1770.7" y="551.996" width="1785.02" height="13.393" style="fill:white;fill-opacity:0.45;"/></g><g transform="matrix(0.937104,-0.352701,0.727356,0.697814,414.774,1654.78)"><rect x="1770.7" y="551.996" width="1785.02" height="13.393" style="fill:white;fill-opacity:0.45;"/></g><g transform="matrix(0.937104,-0.352701,0.727356,0.697814,505.155,1741.5)"><rect x="1770.7" y="551.996" width="1785.02" height="13.393" style="fill:white;fill-opacity:0.45;"/></g><g transform="matrix(0.937104,-0.352701,0.727356,0.697814,595.537,1828.21)"><rect x="1770.7" y="551.996" width="1785.02" height="13.393" style="fill:white;fill-opacity:0.45;"/></g><g transform="matrix(0.937104,-0.352701,0.727356,0.697814,685.918,1914.92)"><rect x="1770.7" y="551.996" width="1785.02" height="13.393" style="fill:white;fill-opacity:0.45;"/></g><g transform="matrix(0.937104,-0.352701,0.727356,0.697814,776.3,2001.63)"><rect x="1770.7" y="551.996" width="1785.02" height="13.393" style="fill:white;fill-opacity:0.45;"/></g><g transform="matrix(0.937104,-0.352701,0.988997,0.948828,89.5863,1342.8)"><rect x="1888.91" y="451.812" width="9.909" height="763.69" style="fill:white;fill-opacity:0.55;"/></g><g transform="matrix(0.937104,-0.352701,0.988997,0.948828,198.789,1301.7)"><rect x="1888.91" y="451.812" width="9.909" height="763.69" style="fill:white;fill-opacity:0.55;"/></g><g transform="matrix(0.937104,-0.352701,0.988997,0.948828,307.992,1260.6)"><rect x="1888.91" y="451.812" width="9.909" height="763.69" style="fill:white;fill-opacity:0.55;"/></g><g transform="matrix(0.937104,-0.352701,0.988997,0.948828,417.195,1219.5)"><rect x="1888.91" y="451.812" width="9.909" height="763.69" style="fill:white;fill-opacity:0.55;"/></g><g transform="matrix(0.937104,-0.352701,0.988997,0.948828,526.398,1178.4)"><rect x="1888.91" y="451.812" width="9.909" height="763.69" style="fill:white;fill-opacity:0.55;"/></g><g transform="matrix(0.937104,-0.352701,0.988997,0.948828,635.601,1137.3)"><rect x="1888.91" y="451.812" width="9.909" height="763.69" style="fill:white;fill-opacity:0.55;"/></g><g transform="matrix(0.937104,-0.352701,0.988997,0.948828,744.804,1096.2)"><rect x="1888.91" y="451.812" width="9.909" height="763.69" style="fill:white;fill-opacity:0.55;"/></g><g transform="matrix(0.937104,-0.352701,0.988997,0.948828,854.006,1055.1)"><rect x="1888.91" y="451.812" width="9.909" height="763.69" style="fill:white;fill-opacity:0.55;"/></g><g transform="matrix(0.937104,-0.352701,0.988997,0.948828,963.209,1014)"><rect x="1888.91" y="451.812" width="9.909" height="763.69" style="fill:white;fill-opacity:0.55;"/></g><g transform="matrix(0.937104,-0.352701,0.988997,0.948828,1072.41,972.895)"><rect x="1888.91" y="451.812" width="9.909" height="763.69" style="fill:white;fill-opacity:0.55;"/></g><g transform="matrix(0.937104,-0.352701,0.988997,0.948828,1181.62,931.794)"><rect x="1888.91" y="451.812" width="9.909" height="763.69" style="fill:white;fill-opacity:0.55;"/></g><g transform="matrix(0.937104,-0.352701,0.988997,0.948828,1290.82,890.693)"><rect x="1888.91" y="451.812" width="9.909" height="763.69" style="fill:white;fill-opacity:0.55;"/></g><g transform="matrix(0.937104,-0.352701,0.988997,0.948828,1400.02,849.592)"><rect x="1888.91" y="451.812" width="9.909" height="763.69" style="fill:white;fill-opacity:0.55;"/></g><g transform="matrix(0.937104,-0.352701,0.988997,0.948828,1509.22,808.491)"><rect x="1888.91" y="451.812" width="9.909" height="763.69" style="fill:white;fill-opacity:0.55;"/></g></g><g transform="matrix(0.999297,0,0,0.999297,-1.66913,0.144597)"><path d="M20.374,1592.11L4043.57,312.546L4031.42,447.825L-34.473,1759.84L20.374,1592.11Z" style="fill:rgb(132,188,232);"/></g><g transform="matrix(0.999297,0,0,0.999297,-1.66913,0.144597)"><path d="M25.838,1598.14L-54.594,1548.77L3984.87,250.181L4030.32,319.601C4030.32,319.601 29.474,1578.69 25.838,1598.14Z" style="fill:rgb(222,236,248);"/></g><g transform="matrix(0.946265,-0.321214,0.321214,0.946265,70.0719,703.889)"><path d="M1883.8,569.095C1883.8,532.574 1854.14,502.924 1817.62,502.924L1126.21,376.562C1104.6,376.562 1060.58,431.197 1028.25,483.372C1005.95,519.364 989.205,554.186 989.205,569.095L989.205,1190.3C989.205,1226.82 1018.86,1256.47 1055.38,1256.47L1817.62,1256.47C1854.14,1256.47 1985.3,1098.8 1985.3,1062.27L1883.8,569.095Z" style="fill:rgb(98,160,219);"/></g><g transform="matrix(1.20256,-0.127721,0.0238321,1.21359,-3700.42,-116.366)"><g transform="matrix(18.8212,0,0,18.8212,-2891.18,-4513.92)"><g opacity="0.1"><g><g transform="matrix(1,-2.77556e-17,1.38778e-17,1,-0.456732,0.587915)"><path d="M347.6,344.74C352.4,347.5 352.41,352 347.67,354.75C342.93,357.51 335.22,357.51 330.41,354.74C325.63,351.98 325.6,347.51 330.35,344.75C335.1,341.99 342.83,341.98 347.6,344.74Z" style="fill-rule:nonzero;"/></g><g transform="matrix(1,-5.55112e-17,2.77556e-17,1,-0.456732,0.587915)"><path d="M347.6,344.74C352.4,347.5 352.41,352 347.67,354.75C342.93,357.51 335.22,357.51 330.41,354.74C325.63,351.98 325.6,347.51 330.35,344.75C335.1,341.99 342.83,341.98 347.6,344.74Z" style="fill-rule:nonzero;"/></g></g></g></g><g transform="matrix(18.8212,0,0,18.8212,-2891.18,-4513.92)"><g><g transform="matrix(0.0531316,0,0,0.0531316,151.948,239.425)"><path d="M3391.42,2105.42L3390.67,2105.42L3335.14,1820.85L3794.38,1813.7L3738.48,2105.42L3738.45,2105.42C3734.96,2128.15 3718.26,2150.31 3688.42,2167.72C3620.66,2207.06 3510.56,2207.06 3442.05,2167.53C3411.99,2150.15 3395.12,2128.06 3391.42,2105.42Z" style="fill:rgb(45,69,132);fill-rule:nonzero;"/></g><g transform="matrix(0.0594416,0,0,0.0594416,324.063,325.897)"><path d="M461.228,348.204L450.906,402.073C405.455,440.055 357.99,478.763 306.797,508.794C273.841,510.657 239.99,506.433 210.632,496.109C224.664,488.927 238.34,481.065 252.038,472.971C306.617,440.719 366.158,414.13 418.82,378.762C432.834,369.35 447.099,358.963 461.228,348.204ZM494.251,175.865L464.842,329.346C394.005,377.402 319.39,418.755 241.854,456.59C222.181,466.189 202.403,475.111 182.262,483.35C181.877,483.133 181.502,482.919 181.128,482.703C154.264,467.162 139.185,447.422 135.876,427.187L135.201,427.187L132.236,411.992C145.931,408.149 158.201,404.247 166.403,401.679C280.041,366.101 372.283,281.597 460.743,206.039C472.182,196.269 482.883,185.715 494.251,175.865Z" style="fill:url(#_Linear2);fill-rule:nonzero;"/></g></g><g><g><path d="M349.95,330.78C354.74,333.56 354.76,338.04 350,340.8C345.25,343.56 337.54,343.56 332.75,340.79C327.97,338.03 327.94,333.56 332.69,330.8C337.44,328.04 345.17,328.03 349.95,330.78Z" style="fill:rgb(142,187,229);fill-rule:nonzero;"/><path d="M349.95,330.78C354.74,333.56 354.76,338.04 350,340.8C345.25,343.56 337.54,343.56 332.75,340.79C327.97,338.03 327.94,333.56 332.69,330.8C337.44,328.04 345.17,328.03 349.95,330.78Z" style="fill:url(#_Linear3);fill-rule:nonzero;"/></g></g><g><g><path d="M347.29,332.13C350.8,334.16 350.8,337.42 347.33,339.45C343.87,341.46 338.23,341.46 334.72,339.44C331.23,337.42 331.2,334.16 334.67,332.13C338.15,330.13 343.8,330.12 347.29,332.13Z" style="fill:rgb(193,171,83);fill-rule:nonzero;"/></g></g></g><g transform="matrix(18.8212,0,0,18.8212,-2891.18,-4513.92)"><path d="M332.25,336.72C332.25,336.72 323.25,325.34 332.1,304.88C332.1,304.88 339.87,314.67 335.41,339.8C335.4,339.8 333.67,339.15 332.25,336.72Z" style="fill:rgb(237,213,115);fill-rule:nonzero;"/></g><g transform="matrix(18.8212,0,0,18.8212,-2891.18,-4513.92)"><path d="M332.19,305.02C332.37,312.9 332.81,326.59 333.89,338.78C334.74,339.54 335.4,339.8 335.4,339.8C339.56,316.37 333.09,306.28 332.19,305.02Z" style="fill:rgb(193,171,83);fill-rule:nonzero;"/></g><g transform="matrix(18.8212,0,0,18.8212,-2891.18,-4513.92)"><path d="M336.66,335.33C336.66,335.33 329.45,322.74 341.25,303.82C341.25,303.82 347.49,314.66 339.35,338.84C339.35,338.84 337.73,337.94 336.66,335.33Z" style="fill:rgb(237,213,115);fill-rule:nonzero;"/></g><g transform="matrix(18.8212,0,0,18.8212,-2891.18,-4513.92)"><path d="M341.25,303.82C340.25,311.63 338.03,325.21 337.3,337.42C338.02,338.32 338.65,338.67 338.65,338.67C347.49,317.55 341.95,305.19 341.25,303.82Z" style="fill:rgb(193,171,83);fill-rule:nonzero;"/></g><g transform="matrix(18.8212,0,0,18.8212,-2891.18,-4513.92)"><g><path d="M337.13,340.3C337.13,340.3 326.34,336.49 323.65,319.11C323.65,319.11 332.95,322.39 340.54,341.03C340.54,341.03 339.1,341.32 337.13,340.3Z" style="fill:rgb(237,213,115);fill-rule:nonzero;"/></g><g><path d="M323.77,319.16C327.2,324.36 333.24,333.3 339.09,340.98C339.98,341.14 340.53,341.03 340.53,341.03C333.47,323.65 324.91,319.62 323.77,319.16Z" style="fill:rgb(193,171,83);fill-rule:nonzero;"/></g></g><g transform="matrix(18.8212,0,0,18.8212,-2891.18,-4513.92)"><g><path d="M341.92,338.62C341.92,338.62 336.14,332.02 340.87,319.4C340.87,319.4 345.85,325.08 343.93,340.39C343.93,340.39 342.86,340.05 341.92,338.62Z" style="fill:rgb(237,213,115);fill-rule:nonzero;"/></g><g><path d="M340.94,319.48C341.28,324.23 341.96,332.48 342.98,339.8C343.52,340.23 343.93,340.38 343.93,340.38C345.72,326.13 341.52,320.21 340.94,319.48Z" style="fill:rgb(193,171,83);fill-rule:nonzero;"/></g></g><g transform="matrix(18.8212,0,0,18.8212,-2891.18,-4513.92)"><g><path d="M344.48,334.38C344.48,334.38 338.96,324.36 348.5,309.58C348.5,309.58 353.28,318.23 346.54,337.18C346.54,337.18 345.28,336.46 344.48,334.38Z" style="fill:rgb(237,213,115);fill-rule:nonzero;"/></g><g><path d="M348.56,309.71C347.67,315.87 346.22,326.57 345.5,336.19C346.06,336.89 346.54,337.18 346.54,337.18C352.82,319.51 349.09,310.82 348.56,309.71Z" style="fill:rgb(193,171,83);fill-rule:nonzero;"/></g></g><g transform="matrix(18.8212,0,0,18.8212,-2891.18,-4513.92)"><g><path d="M345.89,336.26C345.89,336.26 344.59,327.81 355.06,319.89C355.06,319.89 356.2,327.17 346.63,338.75C346.63,338.74 345.94,337.92 345.89,336.26Z" style="fill:rgb(193,171,83);fill-rule:nonzero;"/></g><g><path d="M355.07,319.99C352.86,324.07 349.14,331.22 346.15,337.8C346.37,338.43 346.63,338.75 346.63,338.75C355.55,327.95 355.16,320.9 355.07,319.99Z" style="fill:rgb(237,213,115);fill-rule:nonzero;"/></g></g></g><g transform="matrix(0.999297,0,0,0.999297,-1.66913,0.144597)"><path d="M2261.94,1018.68L1487.3,1340.52L1388.39,1505.39L1391.11,1513.4C1399.63,1538.51 1421.79,1555.16 1446.53,1557.91L1486.31,1550.96L2196.83,1309.77C2231.42,1298.03 2304.92,1106.57 2293.18,1071.99L2261.94,1018.68Z" style="fill:rgb(47,128,206);"/></g><g transform="matrix(-1.35689,0.457303,1.13711,0.805492,4252.12,-275.327)"><g transform="matrix(0.96757,5.55112e-17,-3.35182e-16,1.01905,584.779,63.4379)"><path d="M2496.63,849.402L2423.68,736.727L1534.66,737.708C1507.56,737.708 1485.57,758.593 1485.57,784.319L1485.57,1702.16C1485.57,1727.89 1507.56,1748.78 1534.66,1748.78L2447.54,1748.78C2474.64,1748.78 2496.63,1727.89 2496.63,1702.16L2496.63,849.402Z" style="fill-opacity:0.15;"/></g><g transform="matrix(-0.499034,0.283317,0.704484,0.840646,2318.48,-974.282)"><path d="M1399.26,2428.2L1204.27,1722.91L3710.62,2114.2L3783.99,2379.39L1399.26,2428.2Z" style="fill:url(#_Linear4);"/></g><g transform="matrix(0.96757,0,0,1.01905,523.649,82.6164)"><path d="M2491.15,730.399C2491.15,718.156 2483.06,708.717 2429.71,656.152C2396.13,623.071 2356.11,580.369 2353.24,584.949L1534.66,737.708C1507.56,737.708 1485.57,758.593 1485.57,784.319L1343.41,1598.95C1343.66,1605.6 1390.22,1652.56 1430.07,1695.26C1479.33,1748.06 1495.31,1762.48 1510.14,1762.35L2447.54,1748.78C2474.64,1748.78 2496.63,1727.89 2496.63,1702.16L2491.15,730.399Z" style="fill:rgb(98,160,219);"/></g><g transform="matrix(0.576517,-0.336339,0.883532,0.99797,218.108,301.905)"><path d="M2583.08,1319.44C2583.72,1325.3 2584.37,1331.02 2584.46,1337.1L1580.93,1991.91C1553.5,2009.82 1506.06,2015.87 1475.07,2005.43L404.775,1644.71C404.743,1638.13 404.872,1633.62 404.991,1627.48L1475.63,1988.31C1505.61,1998.42 1551.51,1992.56 1578.06,1975.24L2583.08,1319.44ZM1590.82,1288.6C1781.09,1263.33 1973.49,1254.58 2165.37,1264.75C2169.05,1264.95 2172.85,1265.13 2176.77,1265.31L1720.8,1406.65C1677.39,1420.11 1627.05,1421.08 1591.65,1409.15C1556.24,1397.21 1542.16,1374.53 1555.52,1350.94L1590.82,1288.6Z" style="fill:rgb(174,211,240);"/></g><g transform="matrix(0.96757,0,0,1.01905,394.506,-63.2545)"><path d="M2496.63,784.319C2496.63,758.593 2474.64,737.708 2447.54,737.708L1534.66,737.708C1507.56,737.708 1485.57,758.593 1485.57,784.319L1485.57,1702.16C1485.57,1727.89 1507.56,1748.78 1534.66,1748.78L2447.54,1748.78C2474.64,1748.78 2496.63,1727.89 2496.63,1702.16L2496.63,784.319Z" style="fill:rgb(236,97,152);"/></g><g transform="matrix(0.96757,0,0,1.01905,394.506,-63.2545)"><path d="M2496.63,784.319C2496.63,758.593 2474.64,737.708 2447.54,737.708L1534.66,737.708C1507.56,737.708 1485.57,758.593 1485.57,784.319L1485.57,1702.16C1485.57,1727.89 1507.56,1748.78 1534.66,1748.78L2447.54,1748.78C2474.64,1748.78 2496.63,1727.89 2496.63,1702.16L2496.63,784.319Z" style="fill:rgb(45,69,132);"/></g><g transform="matrix(-0.499034,0.283317,0.704484,0.840646,2318.48,-974.282)"><path d="M2242.95,2286.78C2239.25,2239.01 2273.47,2191.93 2247.51,2160.52C2190.54,2091.61 1901.68,1948.09 1896.65,1880.59C1893.59,1839.57 1923.9,1821.82 1942.29,1793.7L2008.36,1778.48C2194.4,1802.32 2339.66,2010.52 2516.07,1977.73C2563.21,1968.96 2808.01,1906.84 2822.52,1850.65C2826.39,1835.68 2827.16,1816.6 2820.33,1802.24C2809.09,1778.59 2664.76,1600.04 2751.08,1585.74C2811.27,1575.77 3165.73,1766.83 3218.57,1803.88C3263.58,1835.43 3303.37,1902.11 3333.17,1947.82C3350,1973.63 3385.71,2013.61 3409.67,2054.48L2461.37,2374.08C2425.77,2386.08 2372.66,2378.66 2342.82,2357.53L2242.95,2286.78Z" style="fill:url(#_Linear5);"/></g><g transform="matrix(-0.499034,0.283317,0.704484,0.840646,2318.48,-974.282)"><path d="M1922.37,1812.82C1899.29,1812.27 1924.88,1863.88 1928.2,1870.65C1954.01,1923.35 1998.72,1957.7 2044.61,1992.13C2077.88,2017.08 2116.8,2033.81 2152.22,2055.42C2267.32,2125.64 2362.47,2246.28 2506.43,2177.07C2526.89,2167.23 2549.75,2154.57 2562.19,2134.62C2569.36,2123.12 2568.67,2111.36 2568.67,2098.33C2568.67,2036.02 2507.19,2006.33 2461.55,1975.85C2337.46,1892.95 2133.85,1807.43 1983.49,1818.89" style="fill-opacity:0.15;"/></g><g transform="matrix(-0.499034,0.283317,0.704484,0.840646,2318.48,-974.282)"><path d="M2754.57,1588.45C2747.19,1589.09 2748.52,1597.47 2748.43,1603.32C2747.64,1654.45 2798.31,1710.36 2833.47,1743.59C2891.47,1798.42 2964.6,1817.14 3031.77,1856.16C3089.95,1889.97 3138.56,1947.45 3206.69,1961.92C3225.85,1965.99 3252.54,1964.47 3271.2,1959.61C3332.5,1943.67 3289.78,1896.8 3268.26,1861.11C3231.19,1799.6 3123.44,1717.46 3056.36,1697.54" style="fill-opacity:0.15;"/></g><g transform="matrix(0.576517,-0.336339,0.883532,0.99797,218.108,301.905)"><path d="M2189.44,1150.26L1700.46,1036.73C1713.71,1015.62 1718.77,997.021 1700.43,985.632L1517.53,923.806C1487.54,913.701 1441.65,919.56 1415.1,936.882L467.961,1554.9C460.411,1559.83 455.234,1565.16 452.381,1570.49C435.257,1559.08 437.093,1541.31 459.111,1526.94L1406.25,908.92C1432.8,891.598 1478.69,885.739 1508.68,895.845L2518.97,1236.34C2540.42,1243.57 2547.95,1257.03 2540.77,1270.44C2537.26,1268.1 2532.93,1266.02 2527.82,1264.3C2527.82,1264.3 2418.95,1227.94 2350.04,1204.92C2314.17,1192.94 2274.76,1192.33 2237.39,1203.17C2106.35,1241.25 1788.83,1333.36 1689.4,1360.76C1623.02,1379.05 1528.91,1354.55 1548.75,1298.04C1568.58,1241.53 1700.36,1172.07 1700.36,1172.07L2189.44,1150.26Z" style="fill:rgb(31,48,92);"/></g><path d="M2826.57,720.329C2826.57,693.235 2804.57,671.238 2777.48,671.238L1864.59,671.238C1837.5,671.238 1815.5,693.235 1815.5,720.329L1815.5,1687.01C1815.5,1714.1 1837.5,1736.1 1864.59,1736.1L2777.48,1736.1C2804.57,1736.1 2826.57,1714.1 2826.57,1687.01L2826.57,720.329ZM2562.31,688.504L2390.11,1055.89C2376.97,1083.92 2348.81,1101.82 2317.85,1101.82C2286.9,1101.82 2258.74,1083.92 2245.6,1055.89L2073.39,688.504L1879.39,688.504C1853.18,688.504 1831.89,709.788 1831.89,736.003L1831.89,1671.33C1831.89,1697.55 1853.18,1718.83 1879.39,1718.83L2762.67,1718.83C2788.89,1718.83 2810.17,1697.55 2810.17,1671.33L2810.17,736.003C2810.17,709.788 2788.89,688.504 2762.67,688.504L2562.31,688.504Z" style="fill:rgb(174,211,240);"/><path d="M2826.57,720.329C2826.57,693.235 2804.57,671.238 2777.48,671.238L1864.59,671.238C1837.5,671.238 1815.5,693.235 1815.5,720.329L1815.5,1687.01C1815.5,1714.1 1837.5,1736.1 1864.59,1736.1L2777.48,1736.1C2804.57,1736.1 2826.57,1714.1 2826.57,1687.01L2826.57,720.329ZM2633.17,688.504C2587.18,688.504 2553.38,707.562 2536.86,742.788C2488.95,845.01 2390.11,1055.89 2390.11,1055.89C2376.97,1083.92 2348.81,1101.82 2317.85,1101.82C2286.9,1101.82 2258.74,1083.92 2245.6,1055.89C2245.6,1055.89 2141.22,833.212 2094.99,734.581C2089.54,722.948 2080.03,711.216 2068.88,702.391C2057.74,693.565 2046.06,688.504 2036.83,688.504C1980.62,688.504 1879.39,688.504 1879.39,688.504C1853.18,688.504 1831.89,709.788 1831.89,736.003L1831.89,1671.33C1831.89,1697.55 1853.18,1718.83 1879.39,1718.83L2762.67,1718.83C2788.89,1718.83 2810.17,1697.55 2810.17,1671.33L2810.17,736.003C2810.17,709.788 2788.89,688.504 2762.67,688.504L2633.17,688.504Z" style="fill:url(#_Linear6);"/><g transform="matrix(0.894813,0,0,0.894813,247.321,100.665)"><path d="M2113.83,723.972L2198.33,903.36C2276.74,860.428 2355.44,859.448 2434.5,906.519L2518.76,728.243C2385.78,676.733 2250.8,675.26 2113.83,723.972Z" style="fill:rgb(249,252,254);"/></g><g transform="matrix(0.42603,-0.241871,0.601425,0.717668,739.459,389.564)"><path d="M1666.51,1281.27L1754.2,1101.48C1998.87,1125.22 2184.92,1187.69 2312.52,1288.81L2318.49,1286.83C2190.67,1179.53 2000.33,1113.54 1747.28,1088.99L1653.59,1281.09C1657.94,1281.12 1662.25,1281.18 1666.51,1281.27Z" style="fill:rgb(45,69,132);"/></g><g transform="matrix(1,0,0,1,-0.0013624,4.13093)"><path d="M2175.49,772.138L2167.49,755.058C2166.58,753.121 2164.28,752.285 2162.34,753.192C2160.4,754.099 2159.57,756.408 2160.47,758.345L2168.47,775.425C2169.38,777.362 2171.69,778.198 2173.62,777.291C2175.56,776.384 2176.4,774.075 2175.49,772.138ZM2471.85,771.635L2480.19,754.721C2481.14,752.803 2480.35,750.478 2478.43,749.531C2476.52,748.585 2474.19,749.373 2473.24,751.291L2464.9,768.205C2463.95,770.123 2464.74,772.448 2466.66,773.395C2468.57,774.341 2470.9,773.553 2471.85,771.635ZM2453.58,762.525L2456.18,754.358C2456.83,752.321 2455.71,750.138 2453.67,749.488C2451.63,748.838 2449.45,749.964 2448.8,752.001L2446.19,760.168C2445.54,762.206 2446.67,764.388 2448.71,765.038C2450.74,765.688 2452.93,764.562 2453.58,762.525ZM2196.03,758L2192.6,747.798C2191.92,745.771 2189.72,744.679 2187.69,745.361C2185.66,746.044 2184.57,748.243 2185.25,750.27L2188.69,760.472C2189.37,762.499 2191.57,763.591 2193.6,762.908C2195.62,762.226 2196.71,760.027 2196.03,758ZM2431.14,756.25L2433.1,747.919C2433.59,745.837 2432.29,743.75 2430.21,743.262C2428.13,742.773 2426.04,744.067 2425.55,746.149L2423.6,754.48C2423.11,756.562 2424.41,758.649 2426.49,759.137C2428.57,759.626 2430.66,758.332 2431.14,756.25ZM2404.21,755.38L2408.94,736.823C2409.47,734.751 2408.22,732.639 2406.14,732.111C2404.07,731.583 2401.96,732.837 2401.43,734.909L2396.7,753.466C2396.18,755.538 2397.43,757.65 2399.5,758.178C2401.57,758.706 2403.68,757.452 2404.21,755.38ZM2248.36,751.535L2242.52,732.558C2241.89,730.515 2239.72,729.366 2237.67,729.996C2235.63,730.626 2234.48,732.796 2235.11,734.84L2240.96,753.816C2241.59,755.86 2243.76,757.009 2245.8,756.379C2247.84,755.749 2248.99,753.579 2248.36,751.535ZM2221.51,749.94L2217.46,739.914C2216.66,737.931 2214.4,736.972 2212.42,737.774C2210.43,738.576 2209.47,740.836 2210.28,742.819L2214.33,752.845C2215.13,754.828 2217.39,755.786 2219.38,754.985C2221.36,754.183 2222.32,751.923 2221.51,749.94ZM2331.12,746.648L2331.25,727.787C2331.26,725.648 2329.54,723.9 2327.4,723.885C2325.26,723.87 2323.51,725.594 2323.5,727.733L2323.37,746.594C2323.35,748.732 2325.08,750.481 2327.21,750.496C2329.35,750.51 2331.1,748.786 2331.12,746.648ZM2383.86,746.063L2385.29,737.371C2385.63,735.26 2384.2,733.266 2382.09,732.92C2379.98,732.574 2377.98,734.007 2377.64,736.118L2376.22,744.811C2375.87,746.921 2377.3,748.915 2379.41,749.261C2381.52,749.607 2383.52,748.174 2383.86,746.063ZM2359.77,742.602L2361.2,733.909C2361.54,731.799 2360.11,729.804 2358,729.459C2355.89,729.113 2353.89,730.546 2353.55,732.656L2352.12,741.349C2351.78,743.46 2353.21,745.454 2355.32,745.8C2357.43,746.145 2359.43,744.712 2359.77,742.602ZM2277.37,739.937L2274.6,730.369C2274,728.315 2271.85,727.13 2269.8,727.725C2267.74,728.32 2266.56,730.471 2267.15,732.525L2269.92,742.093C2270.52,744.147 2272.67,745.332 2274.72,744.737C2276.78,744.142 2277.96,741.991 2277.37,739.937ZM2301.96,738.378L2300.77,729.458C2300.48,727.338 2298.53,725.847 2296.41,726.129C2294.29,726.412 2292.8,728.362 2293.09,730.482L2294.27,739.402C2294.56,741.522 2296.51,743.014 2298.63,742.731C2300.75,742.449 2302.24,740.498 2301.96,738.378Z" style="fill:rgb(64,103,177);"/></g><path d="M2316.32,849.707C2315.38,851.024 2315.06,852.683 2315.44,854.255C2315.82,855.827 2316.86,857.157 2318.3,857.9C2323.27,860.473 2330.44,864.184 2335.43,866.769C2336.88,867.519 2338.59,867.598 2340.1,866.985C2341.61,866.372 2342.78,865.128 2343.29,863.581C2347.31,851.559 2367.62,800.501 2375.19,777.833C2376.06,775.211 2374.89,772.343 2372.43,771.09C2369.96,769.837 2366.95,770.575 2365.35,772.827C2351.49,792.281 2323.62,839.448 2316.32,849.707Z" style="fill:rgb(64,103,177);"/><g transform="matrix(1,0,0,1,21.2369,-31.4005)"><path d="M2301.25,971.778C2306.05,971.778 2301.16,963.16 2305.14,965.238C2314.37,970.051 2329.12,988.409 2329.12,999.53C2329.12,1015.45 2313.87,1029.49 2297.94,1029.49C2287.59,1029.49 2272.06,1013.76 2266.97,1005.56C2264.24,1001.15 2272.41,1006.19 2272.41,1000.62C2272.41,984.703 2285.33,971.778 2301.25,971.778Z" style="fill:rgb(47,75,130);"/></g><g transform="matrix(1,0,0,1,9.76406,-43.2451)"><circle cx="2301.25" cy="1000.62" r="28.846" style="fill:rgb(64,103,177);"/></g><g transform="matrix(0.263735,0,0,0.263735,1495.31,434.236)"><circle cx="2301.25" cy="1000.62" r="28.846" style="fill:white;"/></g><g transform="matrix(0.263735,0,0,0.263735,1910.22,435.065)"><circle cx="2301.25" cy="1000.62" r="28.846" style="fill:white;"/></g><g transform="matrix(0.42603,-0.241871,0.601425,0.717668,740.251,390.642)"><path d="M1706.2,1377.58C1706.2,1377.58 1719.55,1393.44 1747.74,1387.74C1775.5,1382.13 1781.4,1364.26 1781.4,1364.26C1781.4,1364.26 1764.89,1333.83 1735.56,1340.63C1705.02,1347.72 1706.2,1377.58 1706.2,1377.58Z" style="fill:rgb(47,75,130);"/></g><path d="M2409.98,725.825C2440.48,731.752 2470.87,740.58 2501.14,752.306L2492.9,769.732C2442.05,805.897 2390.87,842.697 2341.96,881.695C2299.34,876.276 2256.83,885.781 2214.42,909.003L2209.34,898.237C2273.35,837.987 2340.2,779.704 2409.98,725.825ZM2253.97,720.673C2277.57,717.693 2301.1,716.406 2324.57,716.811C2275.89,757.928 2229.05,800.994 2185.6,847.821L2166.01,806.244C2166.94,805.295 2167.82,804.395 2168.63,803.549C2196.3,774.837 2224.54,747.09 2253.97,720.673Z" style="fill:url(#_Linear7);"/></g><g transform="matrix(1.11016,0,0,1.11016,-15.759,-224.916)"><path d="M2087.97,247.528C2087.97,247.528 2107.41,456.548 2106.53,532.011C2105.65,607.475 2097.51,594.619 2074.97,660.334C2052.41,726.049 2060.15,752 2089.56,812.831C2118.96,873.662 2114.73,857.052 2114.73,857.052C2114.73,857.052 2147.53,1081.89 2157.29,1268.66C2167.05,1455.42 2178.26,1742 2178.26,1742C2178.26,1742 2271.12,1777.02 2302.06,1735.39C2302.06,1735.39 2319.47,1423.65 2377.4,1175C2435.33,926.349 2327.16,788.801 2326.34,717.196C2325.53,645.59 2380.55,321.62 2393.59,268.98C2406.63,216.341 2087.97,247.528 2087.97,247.528Z" style="fill:rgb(255,199,135);"/></g><g transform="matrix(0.999297,0,0,0.999297,-1.66913,0.144597)"><path d="M2570.59,41.98C2571.77,57.17 2573.21,72.418 2572.33,87.593C2565.74,200.72 2556.63,315.233 2541.8,427.635C2535.76,473.475 2468.08,547.489 2472.98,581.37C2476.64,606.66 2532.4,610.794 2545.83,653.912C2554.38,681.336 2549.22,712.291 2552.26,740.537C2566.06,868.632 2611.13,1001.07 2590.9,1131.24C2572.6,1249 2518.66,1360.14 2506,1478.53C2498.51,1548.59 2511.9,1615.37 2516.23,1684.67C2516.56,1689.96 2516.87,1703.42 2517.66,1720.62C2527.9,1717.12 2536.85,1711.43 2543.35,1702.69C2543.35,1702.69 2562.69,1356.37 2627.05,1080.13C2691.4,803.896 2571.23,651.089 2570.32,571.54C2569.47,497.122 2622.91,177.343 2641.67,88.511C2629.86,71.917 2616.41,57.336 2601.01,45.69C2591.86,44.12 2581.62,42.901 2570.59,41.98Z" style="fill:rgb(255,183,101);"/></g><g transform="matrix(1.11016,0,0,1.11016,744.347,-260.187)"><path d="M2087.97,247.528C2087.97,247.528 2107.41,456.548 2106.53,532.011C2105.65,607.475 2097.51,594.619 2074.97,660.334C2052.41,726.049 2060.15,752 2089.56,812.831C2118.96,873.662 2114.73,857.052 2114.73,857.052C2114.73,857.052 2147.53,1081.89 2157.29,1268.66C2167.05,1455.42 2178.26,1742 2178.26,1742C2178.26,1742 2271.12,1777.02 2302.06,1735.39C2302.06,1735.39 2319.47,1423.65 2377.4,1175C2435.33,926.349 2327.16,788.801 2326.34,717.196C2325.53,645.59 2380.55,321.62 2393.59,268.98C2406.63,216.341 2087.97,247.528 2087.97,247.528Z" style="fill:rgb(255,199,135);"/></g><g transform="matrix(0.999297,0,0,0.999297,-1.66913,0.144597)"><path d="M3241.49,4.457C3240.98,52.635 3244.64,109.332 3245.17,116.533C3254.69,245.802 3281.42,374.66 3270.49,505.402C3266.08,558.072 3173.88,524.512 3181.9,610.307C3187.53,670.544 3291.74,632.42 3315.78,686.712C3334.24,728.381 3341.2,1098.74 3334.27,1149.33C3328.37,1192.37 3324.07,1237.67 3312.97,1279.63C3299.55,1330.33 3173.51,1682.54 3263.26,1671.77C3278.3,1669.96 3292.19,1662.7 3304.99,1651.23C3309.68,1579.82 3331.57,1285.69 3387.68,1044.84C3452.04,768.6 3331.87,615.793 3330.96,536.244C3330.18,468.261 3374.71,195.519 3396.72,81.135C3395.21,79.415 3393.65,77.689 3392.08,75.981C3362.77,44.177 3329.17,23.485 3292.89,4.666C3276.34,4.213 3258.95,4.186 3241.49,4.457Z" style="fill:rgb(255,183,101);"/></g><g transform="matrix(1.11016,0,0,1.11016,-15.759,-224.916)"><path d="M2178.23,1681.02C2175.63,1680.58 2169.42,1681.94 2168.01,1684.57C2164.99,1690.21 2171.86,1700.94 2170.93,1707.44C2169.65,1716.37 2164.31,1720.42 2166.11,1730.53C2174.3,1776.58 2163.29,1834.99 2107.18,1839.11C2062.01,1842.42 1985.99,1810.23 1950.84,1784.08C1926.39,1765.88 1901.32,1725.27 1866.62,1729.32C1843.55,1732.01 1841.9,1749.69 1825.71,1760.81C1788.22,1786.57 1770.06,1773.73 1742.75,1815.77C1735.44,1827.02 1727.42,1840.59 1733.76,1853.93C1740.12,1867.34 1762.74,1875.17 1773.42,1885.79C1803.29,1915.48 1834.23,1937.61 1871.67,1957.69C1884.67,1964.67 1898.7,1968.29 1912.22,1973.83C1938.25,1984.48 1964.6,1999.8 1987.09,2016.61C2027.52,2046.83 2062.13,2097.33 2113.32,2110.42C2137.79,2116.68 2161.42,2121.31 2186.77,2121.72C2206.44,2122.03 2225.62,2123.4 2245.1,2119.51C2361.38,2096.32 2291.92,1953.89 2299.1,1877.54C2303.27,1833.17 2311.82,1789.28 2317.34,1745.11C2321.26,1713.71 2330.57,1710.75 2315.19,1682.63C2314.05,1680.55 2315.79,1675.71 2314.46,1674.19C2307.93,1666.71 2275.76,1696.59 2270.87,1699.27C2252.25,1709.47 2196.62,1697.01 2178.23,1681.02Z" style="fill:rgb(68,174,158);"/></g><g transform="matrix(0.999297,0,0,0.999297,-1.66913,0.144597)"><path d="M2406.27,1642.71C2427.2,1660.27 2488.18,1673.8 2508.69,1662.57C2514.12,1659.59 2549.86,1626.38 2557.12,1634.7C2558.59,1636.38 2556.66,1641.77 2557.92,1644.07C2575.01,1675.31 2564.68,1678.6 2560.32,1713.48C2554.19,1762.56 2544.68,1811.32 2540.05,1860.6C2532.08,1945.43 2609.24,2103.66 2480.06,2129.42C2458.43,2133.74 2437.12,2132.22 2415.26,2131.87C2387.1,2131.43 2360.85,2126.27 2333.67,2119.32C2276.8,2104.78 2238.34,2048.68 2193.43,2015.11C2168.44,1996.43 2139.18,1979.41 2110.26,1967.58C2095.24,1961.43 2079.65,1957.4 2065.2,1949.65C2023.62,1927.35 1989.24,1902.76 1956.06,1869.78C1944.19,1857.98 1919.07,1849.28 1911.99,1834.38C1904.96,1819.56 1913.86,1804.49 1921.98,1791.98C1952.32,1745.29 1972.49,1759.54 2014.14,1730.93C2031.33,1719.13 2033.77,1700.68 2056.3,1696.44C2062.82,1710.22 2059.66,1717.98 2040.56,1733.82C2039.32,1734.84 2038.11,1736.07 2038.03,1737.82C2037.81,1742.28 2069.17,1762.67 2061.95,1767.45C2044.39,1779.04 2023.25,1755.45 2004.43,1757.28C1990.51,1758.63 1934.47,1803.65 1945.3,1822.02C1961.01,1848.7 2001.32,1844.33 2024.18,1857.57C2042.65,1868.27 2033.66,1887.63 2045.83,1901.7C2054.19,1911.37 2227.56,2012.18 2256.38,2037.1C2381.64,2145.41 2455.6,2072.3 2471,2056.82C2486.27,2041.47 2532.33,1993.32 2533.96,1972.09C2535.31,1954.51 2522.44,1936.5 2522.07,1918.39C2521.22,1876.21 2536.74,1823.29 2524.85,1782.86C2520.22,1767.12 2426.2,1757.63 2433.14,1734.06C2438.94,1714.36 2508.09,1767.34 2503.62,1724.3C2501.45,1703.44 2391.48,1737.44 2414.1,1697.4C2422.31,1682.86 2479.91,1709.35 2497.59,1707.2C2507.48,1706 2542.15,1686.82 2543.53,1675.44C2546.71,1649.36 2514.53,1677.54 2509.56,1679.31C2494.28,1684.75 2472.88,1684.27 2457.28,1680.69C2435.4,1675.66 2410.89,1660.65 2406.27,1642.71Z" style="fill:rgb(57,145,132);"/></g><g transform="matrix(0.999297,0,0,0.999297,-1.66913,0.144597)"><path d="M2406.22,1876.69C2403.14,1907.1 2395.52,1935.58 2387.75,1964.83C2385.82,1972.12 2404.09,1990.39 2408.75,1982.66C2413.07,1975.47 2408.98,1909.73 2409.33,1896.64" style="fill:rgb(57,145,132);"/></g><g transform="matrix(0.946265,-0.321214,0.321214,0.946265,122.171,536.347)"><path d="M1883.8,569.095C1883.8,532.574 1854.14,502.924 1817.62,502.924L1055.38,502.924C1018.86,502.924 989.205,532.574 989.205,569.095L989.205,1190.3C989.205,1226.82 1018.86,1256.47 1055.38,1256.47L1817.62,1256.47C1854.14,1256.47 1883.8,1226.82 1883.8,1190.3L1883.8,569.095Z" style="fill:rgb(136,196,235);"/></g><g transform="matrix(0.904212,-0.306938,0.306938,0.904212,195.138,552.835)"><path d="M1883.8,569.095C1883.8,532.574 1854.14,502.924 1817.62,502.924L1055.38,502.924C1018.86,502.924 989.205,532.574 989.205,569.095L989.205,1190.3C989.205,1226.82 1018.86,1256.47 1055.38,1256.47L1817.62,1256.47C1854.14,1256.47 1883.8,1226.82 1883.8,1190.3L1883.8,569.095Z" style="fill:rgb(249,252,254);"/></g><g transform="matrix(-1.2853,0.438185,0.448601,1.31585,2704.83,-365.704)"><g transform="matrix(1,0,0,1,32.2159,-15.0532)"><path d="M843.167,474.771C843.167,461.783 832.622,451.238 819.633,451.238L668.573,451.238C655.584,451.238 645.039,461.783 645.039,474.771L645.039,591.315C645.039,604.304 655.584,614.849 668.573,614.849L819.633,614.849C832.622,614.849 843.167,604.304 843.167,591.315L843.167,474.771Z" style="fill:rgb(214,233,247);"/></g><path d="M709.704,524.006L700.401,524.006L700.401,580.775L709.704,580.775L709.704,524.006ZM746.423,556.383L737.12,556.383L737.12,580.775L746.423,580.775L746.423,556.383ZM819.86,556.185L810.557,556.185L810.557,580.775L819.86,580.775L819.86,556.185ZM856.578,544.194L847.276,544.194L847.276,580.775L856.578,580.775L856.578,544.194ZM801.5,541.89L792.198,541.89L792.198,580.775L801.5,580.775L801.5,541.89ZM728.063,541.717L718.761,541.717L718.761,580.775L728.063,580.775L728.063,541.717ZM764.782,533.684L755.479,533.684L755.479,580.775L764.782,580.775L764.782,533.684ZM838.219,532.771L828.916,532.771L828.916,580.775L838.219,580.775L838.219,532.771ZM783.141,524.006L773.839,524.006L773.839,580.775L783.141,580.775L783.141,524.006Z" style="fill:rgb(136,196,235);"/><g transform="matrix(1,0,0,1,0,-72.893)"><path d="M709.704,546.815L700.401,546.815L700.401,580.775L709.704,580.775L709.704,546.815ZM746.423,539.601L737.12,539.601L737.12,580.775L746.423,580.775L746.423,539.601ZM819.86,528.448L810.557,528.448L810.557,580.775L819.86,580.775L819.86,528.448ZM856.578,564.705L847.276,564.705L847.276,580.775L856.578,580.775L856.578,564.705ZM801.5,550.258L792.198,550.258L792.198,580.775L801.5,580.775L801.5,550.258ZM728.063,526.177L718.761,526.177L718.761,580.775L728.063,580.775L728.063,526.177ZM764.782,562.721L755.479,562.721L755.479,580.775L764.782,580.775L764.782,562.721ZM838.219,554.887L828.916,554.887L828.916,580.775L838.219,580.775L838.219,554.887ZM783.141,570.068L773.839,570.068L773.839,580.775L783.141,580.775L783.141,570.068Z" style="fill:rgb(136,196,235);"/></g></g><g transform="matrix(0.999297,0,0,0.999297,-1.66913,0.144597)"><path d="M2261.41,1034.76L1450.68,1305.8L1457.63,1326.28C1468.85,1359.33 1504.78,1377.05 1537.83,1365.83L2227.55,1131.7C2260.6,1120.48 2278.32,1084.55 2267.1,1051.5L2261.41,1034.76Z" style="fill:rgb(234,244,251);"/></g><g transform="matrix(0.999297,0,0,0.999297,-1.66913,0.144597)"><path d="M1264.56,732.188C1271.94,719.232 1283.91,708.824 1299.13,703.659L1988.85,469.531C2021.89,458.313 2057.83,476.035 2069.05,509.081L2259.85,1071.17C2263.48,1081.85 2264.08,1092.83 2262.12,1103.17C2270.78,1088 2273.15,1069.33 2267.1,1051.5L2076.29,489.407C2065.08,456.362 2029.14,438.64 1996.09,449.857L1306.38,683.985C1284,691.579 1268.65,710.503 1264.56,732.188Z" style="fill:rgb(45,69,132);"/></g><g transform="matrix(0.796248,-0.249829,0.311943,0.994219,9.34995,376.105)"><rect x="1494.92" y="703.631" width="9.452" height="606.326" style="fill:rgb(61,150,219);"/></g><g transform="matrix(0.947447,-0.317708,0.317708,0.947447,402.037,537.628)"><rect x="1447.76" y="784.811" width="44.63" height="44.63" style="fill:rgb(61,150,219);"/></g><g transform="matrix(0.947447,-0.317708,0.317708,0.947447,417.581,583.979)"><rect x="1447.76" y="784.811" width="44.63" height="44.63" style="fill:rgb(97,169,226);"/></g><g transform="matrix(0.947447,-0.317708,0.317708,0.947447,433.124,630.331)"><rect x="1447.76" y="784.811" width="44.63" height="44.63" style="fill:rgb(125,184,231);"/></g><g transform="matrix(0.947447,-0.317708,0.317708,0.947447,448.667,676.683)"><rect x="1447.76" y="784.811" width="44.63" height="44.63" style="fill:rgb(132,188,232);"/></g><g transform="matrix(0.947447,-0.317708,0.317708,0.947447,464.972,725.308)"><rect x="1447.76" y="784.811" width="44.63" height="44.63" style="fill:rgb(174,211,240);"/></g><g transform="matrix(0.947447,-0.317708,0.317708,0.947447,481.278,773.933)"><rect x="1447.76" y="784.811" width="44.63" height="44.63" style="fill:rgb(174,211,240);"/></g><g transform="matrix(0.94693,-0.321439,0.321439,0.94693,83.0479,647.462)"><g transform="matrix(0.999297,0,0,0.999297,-1.66913,0.144597)"><path d="M1471.15,490.21C1467.48,486.215 1464.17,481.725 1462.23,477.038C1461.96,476.397 1463.92,475.041 1464.34,474.553C1466.41,472.089 1468.23,469.494 1470.17,466.939C1479.74,454.309 1491.91,448.126 1508.17,448.211C1511.53,448.229 1527.3,448.762 1522.79,455.545L1520.31,458.497C1528.95,449.668 1537.82,455.767 1541.3,466.152C1543.77,473.516 1540.81,483.104 1536.61,489.64C1538.07,489.8 1539.74,490.908 1540.16,494.925C1540.94,502.45 1538.59,508.897 1535.81,510.426C1533.02,511.955 1533.05,511.735 1533.05,511.735C1533.05,511.735 1532.51,519.105 1531.17,524.327C1529.84,529.549 1525.33,534.562 1525.33,534.562L1528.74,555.225C1528.74,555.225 1541.95,562.658 1551.44,569.656C1551.44,569.656 1579.56,571.522 1586.54,589.339C1593.52,607.156 1591.4,618.764 1592.13,627.562C1592.86,636.36 1598.79,651.78 1596.75,670.49C1594.71,689.2 1595.21,692.365 1596.9,701.17C1598.6,709.974 1601.32,721.927 1598.9,740.863C1596.48,759.799 1597.54,778.912 1597.54,778.912C1597.54,778.912 1597.06,804.302 1594.28,809.929C1591.5,815.556 1585.35,828.773 1581.23,832.548C1577.1,836.324 1571.12,836.492 1571.12,836.492C1571.12,836.492 1570.74,827.325 1571.29,820.818C1571.84,814.31 1576.04,808.126 1576.92,804.157C1577.79,800.188 1575.78,798.789 1573.12,803.019C1570.45,807.249 1568.53,812.775 1567.07,809.527C1565.61,806.28 1568.48,797.448 1569.74,794.11C1571.01,790.773 1580.55,782.398 1580.42,780.84C1580.28,779.282 1576.39,751.074 1572.52,737.458C1568.64,723.841 1567.47,712.154 1568.71,702.392C1568.71,702.392 1564.28,683.537 1562.83,671.395C1561.38,659.253 1560.96,648.745 1560.96,648.745C1560.96,648.745 1556.18,677.336 1550.94,694.662C1545.72,711.988 1544.43,719.978 1544.58,726.666C1544.73,733.355 1553.11,766.218 1554.1,774.901C1555.09,783.585 1564.86,832.312 1559.89,867.439C1554.92,902.567 1547.44,940.161 1547.73,948.785C1548.02,957.408 1548.05,978.264 1544.95,996.922C1541.85,1015.58 1532.88,1039.75 1531.7,1054.16C1530.52,1068.58 1530.72,1075.53 1530.72,1075.53C1530.72,1075.53 1545.81,1103.07 1549.58,1111.57C1553.34,1120.06 1545.91,1117.75 1539.35,1122.08C1532.79,1126.41 1521.39,1121.69 1520.55,1114.8C1519.71,1107.92 1517.85,1094.94 1516.54,1090.69C1515.23,1086.43 1510.06,1082.67 1510.31,1076.98C1510.56,1071.3 1513.37,1062.32 1513.37,1062.32C1513.37,1062.32 1513.02,1024.41 1511.67,1003.17C1510.32,981.927 1513.89,956.225 1515.93,943.359C1515.93,943.359 1511.05,908.56 1509.04,883.326C1507.04,858.091 1505.45,809.786 1505.45,809.786L1504.69,808.028L1503.99,809.652C1503.99,809.652 1502.4,857.957 1500.4,883.192C1498.4,908.426 1493.51,943.225 1493.51,943.225C1495.55,956.091 1499.13,981.793 1497.78,1003.03C1496.43,1024.28 1496.07,1062.18 1496.07,1062.18C1496.07,1062.18 1498.89,1071.16 1499.13,1076.85C1499.38,1082.53 1494.21,1086.3 1492.9,1090.55C1491.59,1094.81 1489.73,1107.78 1488.89,1114.67C1488.06,1121.56 1476.65,1126.28 1470.09,1121.94C1463.53,1117.61 1456.1,1119.92 1459.87,1111.43C1463.63,1102.94 1478.73,1075.39 1478.73,1075.39C1478.73,1075.39 1478.93,1068.44 1477.75,1054.03C1476.57,1039.62 1467.59,1015.45 1464.49,996.788C1461.39,978.13 1461.43,957.274 1461.72,948.651C1462,940.028 1454.53,902.433 1449.56,867.305C1444.59,832.178 1454.36,783.451 1455.35,774.768C1456.34,766.084 1464.72,733.221 1464.87,726.532C1465.01,719.844 1463.73,711.854 1458.5,694.528C1453.27,677.202 1448.48,648.611 1448.48,648.611C1448.48,648.611 1448.06,659.119 1446.62,671.261C1445.17,683.403 1440.74,702.258 1440.74,702.258C1441.98,712.02 1440.8,723.707 1436.93,737.324C1433.06,750.94 1429.16,779.148 1429.03,780.706C1428.89,782.264 1438.44,790.639 1439.7,793.977C1440.97,797.314 1443.84,806.146 1442.38,809.393C1440.91,812.641 1438.99,807.115 1436.33,802.885C1433.66,798.655 1431.65,800.054 1432.53,804.023C1433.4,807.992 1437.61,814.176 1438.16,820.684C1438.71,827.191 1438.32,836.358 1438.32,836.358C1438.32,836.358 1432.35,836.19 1428.22,832.414C1424.09,828.639 1417.95,815.422 1415.17,809.795C1412.39,804.168 1411.9,778.778 1411.9,778.778C1411.9,778.778 1412.96,759.665 1410.54,740.729C1408.12,721.793 1410.85,709.84 1412.54,701.036C1414.24,692.231 1414.73,689.066 1412.7,670.356C1410.66,651.646 1416.58,636.226 1417.31,627.428C1418.04,618.63 1415.92,607.022 1422.9,589.205C1429.89,571.388 1458.01,569.522 1458.01,569.522C1467.5,562.524 1480.7,555.091 1480.7,555.091L1484.11,534.428C1484.11,534.428 1479.61,529.415 1478.27,524.193C1476.94,518.971 1476.4,511.601 1476.4,511.601C1476.4,511.601 1476.42,511.821 1473.64,510.292C1470.85,508.763 1468.5,502.316 1469.29,494.791C1469.55,492.305 1470.28,490.933 1471.15,490.21Z" style="fill:rgb(230,197,61);"/></g><g transform="matrix(0.999297,0,0,0.999297,-1.66913,0.144597)"><path d="M1505.45,809.778C1505.5,808.546 1505.59,807.322 1505.72,806.109C1505.87,804.816 1506.15,794.129 1508.88,799.369C1512.06,805.477 1515.09,853.602 1515.89,863.441C1517.48,883.174 1518.25,903.091 1519.95,922.807C1520.52,929.375 1529.12,930.831 1528.49,938.665C1528.27,941.348 1521.14,942.445 1520.55,946.007C1516.83,968.628 1516.29,990.037 1516.29,1013.08C1516.3,1031.31 1517.24,1048.7 1518.65,1066.75C1519.29,1074.8 1516.42,1079.41 1518.6,1089.12C1520.96,1099.57 1525.05,1111.85 1530.06,1121.38C1530.27,1121.78 1530.49,1122.56 1530.63,1123.48C1525.65,1122.51 1521.07,1119.08 1520.55,1114.8C1519.71,1107.92 1517.85,1094.94 1516.54,1090.69C1515.23,1086.43 1510.06,1082.67 1510.31,1076.98C1510.56,1071.3 1513.37,1062.32 1513.37,1062.32C1513.37,1062.32 1513.02,1024.41 1511.67,1003.17C1510.32,981.927 1513.89,956.225 1515.93,943.359C1515.93,943.359 1511.05,908.56 1509.04,883.326C1507.04,858.091 1505.45,809.786 1505.45,809.786L1505.45,809.778ZM1441.06,797.996C1436.01,788.26 1424.54,785.872 1425.47,772.437C1426.39,759.227 1427.59,745.738 1429.11,732.596C1429.96,725.264 1432.83,718.187 1432.85,710.834C1432.85,707.064 1432.68,704.154 1429.66,701.413C1428.27,700.146 1423.1,697.219 1423.58,694.971C1424.77,689.48 1430.36,695.104 1432.5,690.458C1437.49,679.597 1440.06,665.514 1440.87,653.652C1441.67,641.964 1442.08,630.697 1442.07,618.983C1442.07,616.728 1441.23,608.716 1445.02,609.098C1450.58,609.658 1448.67,625.468 1449.06,629.312C1450.18,640.152 1459.28,646.178 1469.05,648.969C1474.91,650.644 1500.46,650.843 1505.3,646.355C1508.46,643.421 1507.7,635.584 1507.72,631.893C1507.74,629.803 1505.72,625.06 1507.73,625.623C1508.06,625.715 1508.37,629.79 1508.61,630.453C1510.27,634.994 1508.82,647.772 1513.75,649.934C1519.62,652.502 1530.11,649.969 1536.5,649.969C1537.27,649.969 1544,649.564 1541.97,652.247C1536.5,659.496 1527.98,655.096 1520.27,655.871C1513.44,656.558 1506.96,658.643 1500.33,659.738C1488.44,661.702 1472.02,658.291 1465.66,671.824C1461.6,680.491 1467.26,696.799 1468.81,706.062C1469.47,710.007 1468.92,714.557 1470.59,718.258C1472.23,721.92 1480.19,721.5 1480.53,726.009C1481.06,733.06 1467.86,744.051 1466.32,751.093C1464.45,759.59 1463.81,770.307 1464.57,779.076C1464.94,783.273 1470.72,786.549 1469.17,790.533C1468.37,792.601 1462.16,785.647 1461.35,787.361C1458.92,792.51 1459.71,799.669 1458.45,805.283C1453.1,829.112 1455.47,854.856 1459.36,878.675C1461.5,891.736 1465.5,904.877 1465.66,918.144C1465.79,928.552 1464.59,938.81 1464.57,949.13C1464.57,951.153 1465.32,958.71 1461.61,958.574L1461.6,958.573C1461.57,954.506 1461.63,951.089 1461.72,948.651C1461.99,940.488 1455.3,906.365 1450.37,872.95C1450.2,866.499 1449.93,860.047 1449.45,853.59C1449.23,850.634 1448.7,847.721 1448.16,844.815C1448.17,814.143 1454.56,781.699 1455.35,774.768C1456.34,766.084 1464.72,733.221 1464.87,726.532C1465.01,719.844 1463.73,711.854 1458.5,694.528C1453.27,677.202 1448.48,648.611 1448.48,648.611C1448.48,648.611 1448.06,659.119 1446.62,671.261C1445.17,683.403 1440.74,702.258 1440.74,702.258C1441.98,712.02 1440.8,723.707 1436.93,737.324C1433.06,750.94 1429.16,779.148 1429.03,780.706C1428.89,782.264 1438.44,790.639 1439.7,793.977C1440.07,794.944 1440.57,796.374 1441.06,797.996ZM1483.84,536.067C1485.74,538.044 1487.76,539.928 1489.87,541.736C1491.04,542.739 1502.14,546.911 1502.13,547.792C1502.09,551.465 1492.19,548.088 1491.04,548.906C1487.86,551.158 1488.39,556.76 1485.02,559.451C1481.8,562.027 1476.23,561.331 1472.61,563.329C1468.48,565.612 1466.47,570.873 1462.61,572.842C1455.59,576.423 1447.23,574.445 1439.47,574.054C1448.7,570.139 1458.01,569.522 1458.01,569.522C1467.5,562.524 1480.7,555.091 1480.7,555.091L1483.84,536.067Z" style="fill:rgb(160,143,75);"/></g><g transform="matrix(0.999297,0,0,0.999297,-1.66913,0.144597)"><path d="M1534.6,714.463C1533.52,716.755 1529.84,720.826 1529.72,723.461C1529.66,724.888 1535.02,730.848 1535.22,730.566C1537.71,727.167 1532.72,721.11 1535.29,717.546" style="fill:rgb(160,143,75);"/></g><g transform="matrix(0.999297,0,0,0.999297,-1.66913,0.144597)"><path d="M1559.62,641.546C1559.28,637.393 1559.45,633.194 1559.45,629.031C1559.45,625.24 1559.12,621.433 1559.12,617.612C1559.12,616.198 1559.12,614.784 1559.12,613.37C1559.12,612.826 1558.61,611.547 1559.12,611.739C1560.5,612.259 1560.52,618.92 1560.91,620.245C1563.49,629.064 1566.68,638.098 1560.82,645.805" style="fill:rgb(160,143,75);"/></g><g transform="matrix(0.999297,0,0,0.999297,-1.66913,0.144597)"><path d="M1569.77,684.878C1569.4,687.679 1570.05,696.142 1572.65,697.787C1575.13,699.358 1583.22,696.455 1583.17,700.494C1583.13,703.749 1574.4,706.392 1572.42,704.719C1569.5,702.259 1569.6,695.894 1569.57,692.655" style="fill:rgb(160,143,75);"/></g></g><g transform="matrix(1.11016,0,0,1.11016,-15.759,-224.916)"><path d="M2842.03,1521.57C2833.19,1513.01 2847.67,1491.94 2859.27,1492.97C2867.51,1493.7 2875.35,1506.93 2883.66,1510.13C2908.97,1519.9 2936.17,1526.06 2963.65,1523.76C2978.76,1522.5 3013.78,1505.91 3015.01,1506.74C3025.19,1513.56 3009.68,1533.13 3008.55,1540.86C3006.66,1553.78 3017.95,1567.59 3013.83,1578.94C3011.25,1586.04 3001.37,1588.03 2998.94,1595.42C2994.19,1609.86 2997.59,1630.01 2995.85,1645.22C2990.35,1693.27 2988.2,1742.55 2991.88,1790.97C2993.36,1810.41 2996.98,1829.97 2997.72,1849.4C2998.72,1875.6 2993.53,1907.82 2968.67,1922.18C2912.75,1954.5 2863.05,1927.79 2818.93,1888.96C2802.78,1874.75 2790.83,1857.42 2772.36,1845.57C2757.96,1836.33 2741.25,1831.57 2725.89,1824.28C2698.73,1811.39 2672.33,1796.66 2645.06,1783.74C2598.11,1761.51 2554.25,1741.72 2518.79,1701.96C2509.11,1691.09 2467.94,1621.83 2487.29,1609.26C2502.74,1599.21 2558.26,1612.52 2578.93,1610.42C2601.55,1608.12 2603.53,1603.53 2627.9,1608.11C2642.19,1610.8 2767.77,1682.56 2821.23,1670.09C2858.73,1661.35 2845.99,1567.79 2842.03,1521.57Z" style="fill:rgb(68,174,158);"/></g><g transform="matrix(0.999297,0,0,0.999297,-1.66913,0.144597)"><path d="M3322.52,1453.34C3329.74,1450.44 3334.9,1448.35 3335.39,1448.67C3346.69,1456.25 3329.47,1477.99 3328.21,1486.57C3326.11,1500.93 3338.65,1516.28 3334.07,1528.88C3331.21,1536.77 3320.23,1538.98 3317.53,1547.19C3312.26,1563.24 3316.03,1585.61 3314.1,1602.51C3307.98,1655.9 3305.6,1710.65 3309.69,1764.43C3311.33,1786.03 3315.35,1807.76 3316.17,1829.35C3317.29,1858.45 3311.53,1894.25 3283.91,1910.21C3221.78,1946.1 3166.57,1916.43 3117.55,1873.3C3099.61,1857.51 3086.34,1838.26 3065.81,1825.09C3049.82,1814.83 3031.26,1809.54 3014.2,1801.44C2984.02,1787.12 2954.69,1770.75 2924.4,1756.41C2872.23,1731.7 2823.51,1709.73 2784.12,1665.55C2773.36,1653.48 2727.63,1576.53 2749.12,1562.56C2766.29,1551.4 2827.96,1566.19 2850.92,1563.86C2851.82,1563.77 2852.68,1563.67 2853.52,1563.58C2850.13,1583.61 2808.94,1559.64 2790.16,1578.93C2784.25,1585.01 2783,1594.96 2786.05,1602.83C2793.8,1622.79 2928.75,1741.52 2949.4,1751.77C2971.61,1762.8 3004.05,1775.64 3028.27,1780.81C3037.42,1782.76 3056.88,1790.01 3065.9,1785.1C3070.26,1782.72 3060.48,1753.68 3088.24,1766.27C3112.57,1777.31 3096.1,1832.19 3130.06,1851.13C3173.54,1875.39 3256.02,1888.04 3290.63,1842.64C3326.78,1795.21 3279.85,1692.32 3283.91,1634.17C3285.27,1614.59 3302.22,1578.32 3295.04,1559.09C3293.4,1554.68 3192.13,1542.74 3197.16,1524.9C3198.26,1520.99 3211.24,1525.47 3212.96,1526.05C3227.32,1530.88 3313.24,1551.21 3320.17,1524.14C3323.43,1511.42 3284.72,1521.02 3282.31,1506.28C3279.66,1490.09 3307.52,1492 3317.04,1479.42C3323.14,1471.35 3321.84,1461.91 3322.52,1453.34Z" style="fill:rgb(57,145,132);"/></g><g transform="matrix(0.958455,-0.28277,0.28277,0.958455,-134.42,14.5324)"><g transform="matrix(0.959129,0.282969,-0.282969,0.959129,131.489,23.7815)"><path d="M1361.9,791.282L1186.99,911.204L1236.12,1058.42L1377.04,1016.85C1403.14,1009.15 1418.08,981.708 1410.38,955.609L1361.9,791.282Z" style="fill-opacity:0.12;"/></g><g transform="matrix(0.768857,0,0,0.768857,103.418,-27.3109)"><path d="M1466.56,988.676C1466.56,953.284 1437.82,924.55 1402.43,924.55L380.883,924.55C368.608,924.55 376.871,900.498 367.119,906.49C358.144,912.004 330.89,947.174 325.55,956.266C319.962,965.778 316.756,976.856 316.756,988.676L316.756,1647.1C316.756,1682.49 345.49,1711.22 380.883,1711.22L1402.43,1711.22C1418.24,1711.22 1432.71,1705.49 1443.9,1696C1450.83,1690.11 1481.7,1650.85 1485.64,1642.54C1489.57,1634.23 1466.56,1656.89 1466.56,1647.1L1466.56,988.676Z" style="fill:rgb(232,62,129);"/></g><g transform="matrix(0.768857,0,0,0.768857,123.327,-52.8185)"><path d="M1466.56,988.676C1466.56,953.284 1437.82,924.55 1402.43,924.55L380.883,924.55C345.49,924.55 316.756,953.284 316.756,988.676L316.756,1647.1C316.756,1682.49 345.49,1711.22 380.883,1711.22L1402.43,1711.22C1437.82,1711.22 1466.56,1682.49 1466.56,1647.1L1466.56,988.676Z" style="fill:rgb(255,203,223);"/></g><g transform="matrix(0.720053,0,0,0.720053,166.842,11.4989)"><path d="M1466.56,978.204C1466.56,948.592 1442.52,924.55 1412.9,924.55L370.41,924.55C340.798,924.55 316.756,948.592 316.756,978.204L316.756,1657.57C316.756,1687.18 340.798,1711.22 370.41,1711.22L1412.9,1711.22C1442.52,1711.22 1466.56,1687.18 1466.56,1657.57L1466.56,978.204Z" style="fill:rgb(255,246,250);"/></g><g transform="matrix(2.45236,0,0,2.45236,-1348.71,-1398.95)"><path d="M754.283,929.135L761.208,929.135L757.801,918.397L754.283,929.135ZM754.635,912.157L761.078,912.157L770.743,939.448L764.559,939.448L762.8,933.838L752.746,933.838L750.858,939.448L744.896,939.448L754.635,912.157Z" style="fill:rgb(45,69,132);fill-rule:nonzero;"/><path d="M786.851,929.265C786.851,927.352 786.447,925.895 785.638,924.896C784.83,923.896 783.747,923.396 782.389,923.396C780.537,923.396 779.26,924.266 778.556,926.006C778.186,926.932 778.001,928.074 778.001,929.432C778.001,930.604 778.198,931.647 778.593,932.561C779.309,934.264 780.593,935.116 782.444,935.116C783.679,935.116 784.722,934.65 785.573,933.718C786.425,932.786 786.851,931.302 786.851,929.265ZM783.777,919.248C785.061,919.779 786.098,920.754 786.888,922.174L786.888,919.267L792.017,919.267L792.017,938.411C792.017,941.016 791.578,942.978 790.702,944.299C789.196,946.57 786.308,947.706 782.037,947.706C779.457,947.706 777.353,947.2 775.723,946.188C774.094,945.176 773.193,943.664 773.02,941.652L778.76,941.652C778.908,942.269 779.149,942.713 779.482,942.985C780.05,943.466 781.006,943.707 782.352,943.707C784.253,943.707 785.524,943.071 786.166,941.8C786.586,940.985 786.795,939.615 786.795,937.689L786.795,936.393C786.289,937.257 785.746,937.905 785.166,938.337C784.117,939.14 782.753,939.541 781.074,939.541C778.482,939.541 776.412,938.631 774.863,936.81C773.313,934.989 772.539,932.524 772.539,929.413C772.539,926.414 773.286,923.893 774.779,921.85C776.273,919.807 778.39,918.786 781.13,918.786C782.142,918.786 783.025,918.94 783.777,919.248Z" style="fill:rgb(45,69,132);fill-rule:nonzero;"/><path d="M800.793,927.339L808.995,927.339C808.908,925.945 808.486,924.886 807.727,924.164C806.967,923.442 806.026,923.081 804.903,923.081C803.681,923.081 802.734,923.464 802.061,924.229C801.388,924.994 800.966,926.031 800.793,927.339ZM812.772,922.655C813.562,923.853 814.074,925.241 814.309,926.821C814.444,927.747 814.5,929.08 814.475,930.82L800.663,930.82C800.737,932.845 801.373,934.264 802.57,935.079C803.298,935.585 804.175,935.838 805.199,935.838C806.285,935.838 807.168,935.529 807.847,934.912C808.217,934.579 808.544,934.116 808.828,933.523L814.216,933.523C814.08,934.721 813.457,935.937 812.346,937.171C810.618,939.134 808.199,940.115 805.088,940.115C802.521,940.115 800.256,939.288 798.293,937.634C796.331,935.98 795.349,933.289 795.349,929.561C795.349,926.068 796.235,923.39 798.006,921.526C799.777,919.662 802.076,918.73 804.903,918.73C806.582,918.73 808.094,919.045 809.439,919.674C810.785,920.304 811.896,921.297 812.772,922.655Z" style="fill:rgb(45,69,132);fill-rule:nonzero;"/><path d="M883.073,920.063L888.683,920.063L888.683,925.581L883.073,925.581L883.073,920.063ZM883.073,933.931L888.683,933.931L888.683,939.448L883.073,939.448L883.073,933.931Z" style="fill:rgb(45,69,132);fill-rule:nonzero;"/><path d="M904.365,934.172C905.118,932.382 906.896,930.487 909.698,928.487C912.129,926.747 913.703,925.5 914.419,924.747C915.518,923.575 916.067,922.291 916.067,920.896C916.067,919.761 915.752,918.816 915.123,918.064C914.493,917.311 913.592,916.934 912.419,916.934C910.815,916.934 909.722,917.533 909.142,918.73C908.809,919.421 908.611,920.52 908.55,922.026L903.421,922.026C903.507,919.742 903.921,917.897 904.662,916.49C906.069,913.811 908.568,912.472 912.16,912.472C914.999,912.472 917.258,913.259 918.937,914.833C920.615,916.406 921.455,918.489 921.455,921.081C921.455,923.069 920.862,924.834 919.677,926.377C918.9,927.401 917.622,928.543 915.845,929.802L913.734,931.302C912.413,932.24 911.509,932.919 911.021,933.338C910.534,933.758 910.123,934.246 909.79,934.801L921.51,934.801L921.51,939.448L903.125,939.448C903.174,937.523 903.588,935.764 904.365,934.172Z" style="fill:rgb(45,69,132);fill-rule:nonzero;"/><path d="M929.286,932.264C929.496,933.412 929.897,934.298 930.49,934.921C931.082,935.545 931.946,935.856 933.082,935.856C934.39,935.856 935.387,935.397 936.072,934.477C936.757,933.557 937.1,932.4 937.1,931.005C937.1,929.635 936.779,928.478 936.137,927.534C935.495,926.59 934.495,926.118 933.138,926.118C932.496,926.118 931.94,926.198 931.471,926.358C930.644,926.654 930.021,927.204 929.601,928.006L924.861,927.784L926.75,912.953L941.543,912.953L941.543,917.434L930.564,917.434L929.601,923.303C930.416,922.772 931.052,922.421 931.508,922.248C932.274,921.964 933.205,921.822 934.304,921.822C936.526,921.822 938.464,922.569 940.118,924.062C941.772,925.556 942.599,927.728 942.599,930.58C942.599,933.061 941.803,935.276 940.21,937.226C938.618,939.177 936.236,940.152 933.064,940.152C930.508,940.152 928.41,939.467 926.768,938.097C925.127,936.727 924.213,934.783 924.028,932.264L929.286,932.264Z" style="fill:rgb(45,69,132);fill-rule:nonzero;"/><path d="M746.785,984.663L746.785,957.372L752.432,957.372L752.432,967.778L763.096,967.778L763.096,957.372L768.762,957.372L768.762,984.663L763.096,984.663L763.096,972.481L752.432,972.481L752.432,984.663L746.785,984.663Z" style="fill:rgb(45,69,132);fill-rule:nonzero;"/><path d="M777.63,972.555L785.833,972.555C785.746,971.16 785.323,970.101 784.564,969.379C783.805,968.657 782.864,968.296 781.741,968.296C780.519,968.296 779.571,968.679 778.899,969.444C778.226,970.209 777.803,971.246 777.63,972.555ZM789.61,967.87C790.4,969.068 790.912,970.456 791.146,972.036C791.282,972.962 791.338,974.295 791.313,976.035L777.501,976.035C777.575,978.06 778.211,979.479 779.408,980.294C780.136,980.8 781.013,981.053 782.037,981.053C783.123,981.053 784.006,980.744 784.685,980.127C785.055,979.794 785.382,979.331 785.666,978.739L791.054,978.739C790.918,979.936 790.295,981.152 789.184,982.386C787.456,984.349 785.036,985.33 781.926,985.33C779.359,985.33 777.094,984.503 775.131,982.849C773.168,981.195 772.187,978.504 772.187,974.776C772.187,971.283 773.073,968.605 774.844,966.741C776.615,964.877 778.914,963.945 781.741,963.945C783.42,963.945 784.932,964.26 786.277,964.889C787.622,965.519 788.733,966.513 789.61,967.87Z" style="fill:rgb(45,69,132);fill-rule:nonzero;"/><path d="M800.293,962.075L794.942,962.075L794.942,957.206L800.293,957.206L800.293,962.075ZM794.942,964.482L800.293,964.482L800.293,984.663L794.942,984.663L794.942,964.482Z" style="fill:rgb(45,69,132);fill-rule:nonzero;"/><path d="M818.474,974.48C818.474,972.567 818.07,971.11 817.262,970.111C816.453,969.111 815.37,968.611 814.012,968.611C812.161,968.611 810.883,969.481 810.18,971.222C809.809,972.147 809.624,973.289 809.624,974.647C809.624,975.819 809.822,976.862 810.217,977.776C810.933,979.479 812.216,980.331 814.068,980.331C815.302,980.331 816.345,979.865 817.197,978.933C818.049,978.001 818.474,976.517 818.474,974.48ZM815.401,964.464C816.685,964.994 817.722,965.969 818.512,967.389L818.512,964.482L823.64,964.482L823.64,983.627C823.64,986.231 823.202,988.194 822.326,989.514C820.82,991.785 817.931,992.921 813.661,992.921C811.081,992.921 808.976,992.415 807.347,991.403C805.718,990.391 804.817,988.879 804.644,986.867L810.383,986.867C810.532,987.484 810.772,987.928 811.106,988.2C811.673,988.681 812.63,988.922 813.975,988.922C815.876,988.922 817.148,988.286 817.789,987.015C818.209,986.2 818.419,984.83 818.419,982.904L818.419,981.608C817.913,982.472 817.37,983.12 816.79,983.553C815.74,984.355 814.377,984.756 812.698,984.756C810.106,984.756 808.035,983.846 806.486,982.025C804.937,980.204 804.162,977.739 804.162,974.628C804.162,971.629 804.909,969.108 806.403,967.065C807.896,965.022 810.013,964.001 812.753,964.001C813.766,964.001 814.648,964.155 815.401,964.464Z" style="fill:rgb(45,69,132);fill-rule:nonzero;"/><path d="M845.599,966.593C846.154,967.346 846.494,968.12 846.617,968.916C846.741,969.713 846.802,971.012 846.802,972.814L846.802,984.663L841.415,984.663L841.415,972.388C841.415,971.302 841.229,970.425 840.859,969.759C840.378,968.821 839.464,968.352 838.119,968.352C836.724,968.352 835.666,968.818 834.944,969.75C834.221,970.682 833.86,972.012 833.86,973.74L833.86,984.663L828.602,984.663L828.602,957.465L833.86,957.465L833.86,967.111C834.626,965.939 835.511,965.121 836.517,964.658C837.523,964.195 838.582,963.964 839.693,963.964C840.939,963.964 842.072,964.18 843.09,964.612C844.108,965.044 844.945,965.704 845.599,966.593Z" style="fill:rgb(45,69,132);fill-rule:nonzero;"/><path d="M849.654,968.426L849.654,964.667L852.468,964.667L852.468,959.039L857.689,959.039L857.689,964.667L860.966,964.667L860.966,968.426L857.689,968.426L857.689,979.09C857.689,979.917 857.794,980.433 858.004,980.636C858.214,980.84 858.856,980.942 859.929,980.942C860.09,980.942 860.26,980.939 860.439,980.933C860.618,980.926 860.793,980.917 860.966,980.905L860.966,984.849L858.467,984.941C855.973,985.028 854.27,984.596 853.357,983.645C852.764,983.04 852.468,982.108 852.468,980.849L852.468,968.426L849.654,968.426Z" style="fill:rgb(45,69,132);fill-rule:nonzero;"/><path d="M897.793,965.278L903.403,965.278L903.403,970.796L897.793,970.796L897.793,965.278ZM897.793,979.146L903.403,979.146L903.403,984.663L897.793,984.663L897.793,979.146Z" style="fill:rgb(45,69,132);fill-rule:nonzero;"/><path d="M919.288,966.148L919.288,962.557C920.955,962.482 922.121,962.371 922.788,962.223C923.849,961.989 924.713,961.52 925.38,960.816C925.837,960.335 926.182,959.693 926.417,958.891C926.552,958.409 926.62,958.051 926.62,957.817L931.008,957.817L931.008,984.663L925.602,984.663L925.602,966.148L919.288,966.148Z" style="fill:rgb(45,69,132);fill-rule:nonzero;"/><path d="M948.098,981.034C949.307,981.034 950.255,980.67 950.94,979.942C951.625,979.214 951.967,978.189 951.967,976.869C951.967,975.499 951.619,974.459 950.921,973.749C950.224,973.039 949.283,972.684 948.098,972.684C946.913,972.684 945.972,973.039 945.274,973.749C944.577,974.459 944.228,975.499 944.228,976.869C944.228,978.189 944.571,979.214 945.256,979.942C945.941,980.67 946.888,981.034 948.098,981.034ZM942.784,970.37C941.488,969.506 940.645,968.571 940.257,967.565C939.868,966.559 939.673,965.618 939.673,964.741C939.673,962.791 940.408,961.128 941.877,959.752C943.345,958.375 945.419,957.687 948.098,957.687C950.776,957.687 952.85,958.375 954.319,959.752C955.788,961.128 956.522,962.791 956.522,964.741C956.522,965.618 956.328,966.559 955.939,967.565C955.55,968.571 954.708,969.444 953.411,970.185C954.732,970.925 955.726,971.907 956.392,973.129C957.059,974.351 957.392,975.715 957.392,977.22C957.392,979.479 956.556,981.402 954.883,982.988C953.211,984.574 950.875,985.367 947.875,985.367C944.876,985.367 942.605,984.574 941.062,982.988C939.519,981.402 938.748,979.479 938.748,977.22C938.748,975.715 939.09,974.351 939.775,973.129C940.46,971.907 941.463,970.987 942.784,970.37ZM948.098,968.648C949.172,968.648 950.002,968.339 950.588,967.722C951.174,967.105 951.467,966.309 951.467,965.334C951.467,964.272 951.174,963.442 950.588,962.844C950.002,962.245 949.172,961.946 948.098,961.946C947.036,961.946 946.206,962.245 945.607,962.844C945.009,963.442 944.709,964.272 944.709,965.334C944.709,966.309 945.009,967.105 945.607,967.722C946.206,968.339 947.036,968.648 948.098,968.648Z" style="fill:rgb(45,69,132);fill-rule:nonzero;"/><path d="M969.279,981.034C970.846,981.034 971.874,980.217 972.362,978.581C972.849,976.946 973.093,974.585 973.093,971.499C973.093,968.265 972.849,965.871 972.362,964.315C971.874,962.76 970.846,961.983 969.279,961.983C967.711,961.983 966.674,962.76 966.168,964.315C965.662,965.871 965.409,968.265 965.409,971.499C965.409,974.585 965.662,976.946 966.168,978.581C966.674,980.217 967.711,981.034 969.279,981.034ZM978.536,971.499C978.536,975.931 977.848,979.343 976.472,981.738C975.096,984.133 972.698,985.33 969.279,985.33C965.86,985.33 963.462,984.133 962.086,981.738C960.709,979.343 960.021,975.931 960.021,971.499C960.021,967.068 960.709,963.649 962.086,961.242C963.462,958.835 965.86,957.632 969.279,957.632C972.698,957.632 975.096,958.835 976.472,961.242C977.848,963.649 978.536,967.068 978.536,971.499Z" style="fill:rgb(45,69,132);fill-rule:nonzero;"/><path d="M750.543,1002.59L754.154,1018.21L754.931,1022.57L755.727,1018.31L758.801,1002.59L764.818,1002.59L768.058,1018.21L768.891,1022.57L769.725,1018.38L773.372,1002.59L779.167,1002.59L771.484,1029.88L766.04,1029.88L762.744,1013.92L761.782,1008.64L760.819,1013.92L757.523,1029.88L752.228,1029.88L744.489,1002.59L750.543,1002.59Z" style="fill:rgb(45,69,132);fill-rule:nonzero;"/><path d="M786.036,1017.77L794.238,1017.77C794.152,1016.38 793.729,1015.32 792.97,1014.59C792.211,1013.87 791.27,1013.51 790.147,1013.51C788.925,1013.51 787.977,1013.89 787.305,1014.66C786.632,1015.43 786.209,1016.46 786.036,1017.77ZM798.015,1013.09C798.805,1014.28 799.318,1015.67 799.552,1017.25C799.688,1018.18 799.744,1019.51 799.719,1021.25L785.907,1021.25C785.981,1023.27 786.616,1024.69 787.814,1025.51C788.542,1026.02 789.418,1026.27 790.443,1026.27C791.529,1026.27 792.412,1025.96 793.09,1025.34C793.461,1025.01 793.788,1024.55 794.072,1023.95L799.46,1023.95C799.324,1025.15 798.701,1026.37 797.59,1027.6C795.862,1029.56 793.442,1030.55 790.332,1030.55C787.764,1030.55 785.499,1029.72 783.537,1028.06C781.574,1026.41 780.593,1023.72 780.593,1019.99C780.593,1016.5 781.479,1013.82 783.25,1011.96C785.021,1010.09 787.32,1009.16 790.147,1009.16C791.825,1009.16 793.337,1009.48 794.683,1010.11C796.028,1010.73 797.139,1011.73 798.015,1013.09Z" style="fill:rgb(45,69,132);fill-rule:nonzero;"/><path d="M808.699,1007.29L803.348,1007.29L803.348,1002.42L808.699,1002.42L808.699,1007.29ZM803.348,1009.7L808.699,1009.7L808.699,1029.88L803.348,1029.88L803.348,1009.7Z" style="fill:rgb(45,69,132);fill-rule:nonzero;"/><path d="M826.88,1019.7C826.88,1017.78 826.476,1016.33 825.668,1015.33C824.859,1014.33 823.776,1013.83 822.418,1013.83C820.567,1013.83 819.289,1014.7 818.586,1016.44C818.215,1017.36 818.03,1018.5 818.03,1019.86C818.03,1021.03 818.228,1022.08 818.623,1022.99C819.339,1024.69 820.622,1025.55 822.474,1025.55C823.708,1025.55 824.751,1025.08 825.603,1024.15C826.454,1023.22 826.88,1021.73 826.88,1019.7ZM823.807,1009.68C825.09,1010.21 826.127,1011.19 826.917,1012.6L826.917,1009.7L832.046,1009.7L832.046,1028.84C832.046,1031.45 831.608,1033.41 830.731,1034.73C829.225,1037 826.337,1038.14 822.066,1038.14C819.487,1038.14 817.382,1037.63 815.753,1036.62C814.123,1035.61 813.222,1034.09 813.05,1032.08L818.789,1032.08C818.937,1032.7 819.178,1033.14 819.511,1033.41C820.079,1033.9 821.036,1034.14 822.381,1034.14C824.282,1034.14 825.553,1033.5 826.195,1032.23C826.615,1031.41 826.825,1030.05 826.825,1028.12L826.825,1026.82C826.319,1027.69 825.776,1028.34 825.195,1028.77C824.146,1029.57 822.782,1029.97 821.104,1029.97C818.512,1029.97 816.441,1029.06 814.892,1027.24C813.343,1025.42 812.568,1022.95 812.568,1019.84C812.568,1016.84 813.315,1014.32 814.809,1012.28C816.302,1010.24 818.419,1009.22 821.159,1009.22C822.171,1009.22 823.054,1009.37 823.807,1009.68Z" style="fill:rgb(45,69,132);fill-rule:nonzero;"/><path d="M854.005,1011.81C854.56,1012.56 854.9,1013.34 855.023,1014.13C855.146,1014.93 855.208,1016.23 855.208,1018.03L855.208,1029.88L849.82,1029.88L849.82,1017.6C849.82,1016.52 849.635,1015.64 849.265,1014.97C848.783,1014.04 847.87,1013.57 846.525,1013.57C845.13,1013.57 844.071,1014.03 843.349,1014.97C842.627,1015.9 842.266,1017.23 842.266,1018.96L842.266,1029.88L837.008,1029.88L837.008,1002.68L842.266,1002.68L842.266,1012.33C843.031,1011.15 843.917,1010.34 844.923,1009.87C845.929,1009.41 846.988,1009.18 848.098,1009.18C849.345,1009.18 850.478,1009.39 851.496,1009.83C852.514,1010.26 853.35,1010.92 854.005,1011.81Z" style="fill:rgb(45,69,132);fill-rule:nonzero;"/><path d="M858.059,1013.64L858.059,1009.88L860.874,1009.88L860.874,1004.25L866.095,1004.25L866.095,1009.88L869.372,1009.88L869.372,1013.64L866.095,1013.64L866.095,1024.31C866.095,1025.13 866.2,1025.65 866.41,1025.85C866.62,1026.06 867.261,1026.16 868.335,1026.16C868.496,1026.16 868.665,1026.15 868.844,1026.15C869.023,1026.14 869.199,1026.13 869.372,1026.12L869.372,1030.06L866.873,1030.16C864.379,1030.24 862.676,1029.81 861.762,1028.86C861.17,1028.26 860.874,1027.32 860.874,1026.06L860.874,1013.64L858.059,1013.64Z" style="fill:rgb(45,69,132);fill-rule:nonzero;"/><path d="M885.128,1010.49L890.738,1010.49L890.738,1016.01L885.128,1016.01L885.128,1010.49ZM885.128,1024.36L890.738,1024.36L890.738,1029.88L885.128,1029.88L885.128,1024.36Z" style="fill:rgb(45,69,132);fill-rule:nonzero;"/><path d="M923.991,1007.51C923.201,1008.29 922.103,1009.68 920.696,1011.67C919.288,1013.66 918.11,1015.72 917.159,1017.84C916.406,1019.51 915.727,1021.55 915.123,1023.95C914.518,1026.36 914.215,1028.34 914.215,1029.88L908.735,1029.88C908.895,1025.07 910.475,1020.06 913.475,1014.86C915.413,1011.64 917.036,1009.39 918.344,1008.12L904.958,1008.12L905.032,1003.38L923.991,1003.38L923.991,1007.51Z" style="fill:rgb(45,69,132);fill-rule:nonzero;"/><path d="M927.713,1011.36L927.713,1007.77C929.379,1007.7 930.545,1007.59 931.212,1007.44C932.274,1007.2 933.138,1006.74 933.804,1006.03C934.261,1005.55 934.606,1004.91 934.841,1004.11C934.977,1003.62 935.045,1003.27 935.045,1003.03L939.433,1003.03L939.433,1029.88L934.026,1029.88L934.026,1011.36L927.713,1011.36Z" style="fill:rgb(45,69,132);fill-rule:nonzero;"/><rect x="948.542" y="1024.36" width="5.61" height="5.517" style="fill:rgb(45,69,132);fill-rule:nonzero;"/><path d="M962.965,1022.7C963.175,1023.84 963.576,1024.73 964.169,1025.35C964.761,1025.97 965.625,1026.29 966.761,1026.29C968.069,1026.29 969.066,1025.83 969.751,1024.91C970.436,1023.99 970.778,1022.83 970.778,1021.44C970.778,1020.07 970.458,1018.91 969.816,1017.96C969.174,1017.02 968.174,1016.55 966.816,1016.55C966.174,1016.55 965.619,1016.63 965.15,1016.79C964.323,1017.09 963.7,1017.63 963.28,1018.44L958.54,1018.21L960.429,1003.38L975.222,1003.38L975.222,1007.86L964.243,1007.86L963.28,1013.73C964.095,1013.2 964.73,1012.85 965.187,1012.68C965.952,1012.39 966.884,1012.25 967.983,1012.25C970.205,1012.25 972.142,1013 973.796,1014.49C975.45,1015.99 976.277,1018.16 976.277,1021.01C976.277,1023.49 975.481,1025.71 973.889,1027.66C972.297,1029.61 969.914,1030.58 966.742,1030.58C964.187,1030.58 962.089,1029.9 960.447,1028.53C958.805,1027.16 957.892,1025.21 957.707,1022.7L962.965,1022.7Z" style="fill:rgb(45,69,132);fill-rule:nonzero;"/><path d="M980.203,1002.68L985.387,1002.68L985.387,1017.38L991.96,1009.79L998.495,1009.79L991.441,1017.51L998.773,1029.88L992.404,1029.88L987.572,1021.25L985.387,1023.53L985.387,1029.88L980.203,1029.88L980.203,1002.68Z" style="fill:rgb(45,69,132);fill-rule:nonzero;"/><path d="M1014.42,1019.7C1014.42,1017.78 1014.01,1016.33 1013.21,1015.33C1012.4,1014.33 1011.31,1013.83 1009.96,1013.83C1008.11,1013.83 1006.83,1014.7 1006.12,1016.44C1005.75,1017.36 1005.57,1018.5 1005.57,1019.86C1005.57,1021.03 1005.77,1022.08 1006.16,1022.99C1006.88,1024.69 1008.16,1025.55 1010.01,1025.55C1011.25,1025.55 1012.29,1025.08 1013.14,1024.15C1013.99,1023.22 1014.42,1021.73 1014.42,1019.7ZM1011.35,1009.68C1012.63,1010.21 1013.67,1011.19 1014.46,1012.6L1014.46,1009.7L1019.58,1009.7L1019.58,1028.84C1019.58,1031.45 1019.15,1033.41 1018.27,1034.73C1016.76,1037 1013.88,1038.14 1009.6,1038.14C1007.02,1038.14 1004.92,1037.63 1003.29,1036.62C1001.66,1035.61 1000.76,1034.09 1000.59,1032.08L1006.33,1032.08C1006.48,1032.7 1006.72,1033.14 1007.05,1033.41C1007.62,1033.9 1008.57,1034.14 1009.92,1034.14C1011.82,1034.14 1013.09,1033.5 1013.73,1032.23C1014.15,1031.41 1014.36,1030.05 1014.36,1028.12L1014.36,1026.82C1013.86,1027.69 1013.31,1028.34 1012.73,1028.77C1011.68,1029.57 1010.32,1029.97 1008.64,1029.97C1006.05,1029.97 1003.98,1029.06 1002.43,1027.24C1000.88,1025.42 1000.11,1022.95 1000.11,1019.84C1000.11,1016.84 1000.85,1014.32 1002.35,1012.28C1003.84,1010.24 1005.96,1009.22 1008.7,1009.22C1009.71,1009.22 1010.59,1009.37 1011.35,1009.68Z" style="fill:rgb(45,69,132);fill-rule:nonzero;"/></g><g transform="matrix(1,0,0,1,7.61645,33.5166)"><rect x="482.522" y="716.009" width="41.056" height="41.056" style="fill:rgb(44,69,132);"/></g></g></g></g></g></g></g><defs><linearGradient id="_Linear2" x1="0" y1="0" x2="1" y2="0.034174" gradientUnits="userSpaceOnUse" gradientTransform="matrix(577.024,-412.149,412.149,577.024,261.727,440.285)"><stop offset="0" style="stop-color:white;stop-opacity:0"/><stop offset="0.43" style="stop-color:white;stop-opacity:0.31"/><stop offset="1" style="stop-color:white;stop-opacity:1"/></linearGradient><linearGradient id="_Linear3" x1="0" y1="0" x2="1" y2="0.0783037" gradientUnits="userSpaceOnUse" gradientTransform="matrix(23.7782,-6.81164,6.81164,23.7782,337.04,344.92)"><stop offset="0" style="stop-color:white;stop-opacity:0"/><stop offset="1" style="stop-color:white;stop-opacity:1"/></linearGradient><linearGradient id="_Linear4" x1="0" y1="0" x2="1" y2="0" gradientUnits="userSpaceOnUse" gradientTransform="matrix(-149.868,-2376.05,2376.05,-149.868,2870.02,2307.74)"><stop offset="0" style="stop-color:black;stop-opacity:0"/><stop offset="1" style="stop-color:black;stop-opacity:1"/></linearGradient><linearGradient id="_Linear5" x1="0" y1="0" x2="1" y2="0" gradientUnits="userSpaceOnUse" gradientTransform="matrix(-331.534,-915.362,915.362,-331.534,3006.58,2239.02)"><stop offset="0" style="stop-color:rgb(45,69,132);stop-opacity:1"/><stop offset="1" style="stop-color:rgb(12,30,79);stop-opacity:1"/></linearGradient><linearGradient id="_Linear6" x1="0" y1="0" x2="1" y2="0" gradientUnits="userSpaceOnUse" gradientTransform="matrix(-824.362,-967.919,564.959,-343.015,2384.9,1285.3)"><stop offset="0" style="stop-color:white;stop-opacity:0"/><stop offset="1" style="stop-color:white;stop-opacity:1"/></linearGradient><linearGradient id="_Linear7" x1="0" y1="0" x2="1" y2="-0.353354" gradientUnits="userSpaceOnUse" gradientTransform="matrix(-120.883,-402.236,402.236,-120.883,2377.75,897.813)"><stop offset="0" style="stop-color:white;stop-opacity:0"/><stop offset="1" style="stop-color:white;stop-opacity:1"/></linearGradient></defs></svg>